<mxfile host="Electron" agent="Mozilla/5.0 (Windows NT 10.0; Win64; x64) AppleWebKit/537.36 (KHTML, like Gecko) draw.io/24.7.5 Chrome/126.0.6478.183 Electron/31.3.0 Safari/537.36" version="24.7.5">
  <diagram name="页-1" id="Page-1">
    <mxGraphModel dx="1050" dy="717" grid="1" gridSize="10" guides="1" tooltips="1" connect="1" arrows="1" fold="1" page="1" pageScale="1" pageWidth="827" pageHeight="1169" math="0" shadow="0">
      <root>
        <mxCell id="0" />
        <mxCell id="1" parent="0" />
        <UserObject label="&lt;div style=&quot;font-size: 1px&quot;&gt;&lt;font style=&quot;font-size:19.76px;font-family:SimSun;color:#000000;direction:ltr;letter-spacing:0px;line-height:120%;opacity:1&quot;&gt;&lt;b&gt;relpos&lt;/b&gt;&lt;/font&gt;&lt;font style=&quot;font-size:19.76px;font-family:Themed;color:#000000;direction:ltr;letter-spacing:0px;line-height:120%;opacity:1&quot;&gt;&lt;b&gt;&lt;br/&gt;&lt;/b&gt;&lt;/font&gt;&lt;/div&gt;" tags="流程图" id="2">
          <mxCell style="verticalAlign=middle;align=center;overflow=width;vsdxID=113;fillColor=#d5e8d4;shape=stencil(nZBLDoAgDERP0z3SIyjew0SURgSD+Lu9kMZoXLhwN9O+tukAlrNpJg1SzDH4QW/URgNYgZTkjA4UkwJUgGXng+6DX1zLfmoymdXo17xh5zmRJ6Q42BWCfc2oJfdAr+Yv+AP9Cb7OJ3H/2JG1HNGz/84klThPVCc=);strokeColor=#82b366;spacingTop=-1;spacingBottom=-1;spacingLeft=-1;spacingRight=-1;points=[[0,0.5,0],[1,0.5,0],[0.5,1,0],[0.5,0,0]];labelBackgroundColor=none;rounded=0;html=1;whiteSpace=wrap;" parent="1" vertex="1">
            <mxGeometry x="50" y="604" width="100" height="40" as="geometry" />
          </mxCell>
        </UserObject>
        <UserObject label="&lt;div style=&quot;font-size: 1px&quot;&gt;&lt;font style=&quot;font-size:14.11px;font-family:SimSun;color:#000000;direction:ltr;letter-spacing:0px;line-height:120%;opacity:1&quot;&gt;zdres&lt;br/&gt;&lt;/font&gt;&lt;/div&gt;" tags="流程图" id="3">
          <mxCell style="verticalAlign=middle;align=center;overflow=width;vsdxID=115;fillColor=#dae8fc;shape=stencil(nZBLDoAgDERP0z3SIyjew0SURgSD+Lu9kMZoXLhwN9O+tukAlrNpJg1SzDH4QW/URgNYgZTkjA4UkwJUgGXng+6DX1zLfmoymdXo17xh5zmRJ6Q42BWCfc2oJfdAr+Yv+AP9Cb7OJ3H/2JG1HNGz/84klThPVCc=);strokeColor=#6c8ebf;spacingTop=-1;spacingBottom=-1;spacingLeft=-1;spacingRight=-1;points=[[1,0.5,0],[0.5,0.5,0],[0.5,0,0]];labelBackgroundColor=none;rounded=0;html=1;whiteSpace=wrap;" parent="1" vertex="1">
            <mxGeometry x="213" y="301" width="68" height="22" as="geometry" />
          </mxCell>
        </UserObject>
        <UserObject label="&lt;div style=&quot;font-size: 1px&quot;&gt;&lt;font style=&quot;font-size:14.11px;font-family:SimSun;color:#000000;direction:ltr;letter-spacing:0px;line-height:120%;opacity:1&quot;&gt;satposs&lt;br/&gt;&lt;/font&gt;&lt;/div&gt;" tags="流程图" id="4">
          <mxCell style="verticalAlign=middle;align=center;overflow=width;vsdxID=116;fillColor=#dae8fc;shape=stencil(nZBLDoAgDERP0z3SIyjew0SURgSD+Lu9kMZoXLhwN9O+tukAlrNpJg1SzDH4QW/URgNYgZTkjA4UkwJUgGXng+6DX1zLfmoymdXo17xh5zmRJ6Q42BWCfc2oJfdAr+Yv+AP9Cb7OJ3H/2JG1HNGz/84klThPVCc=);strokeColor=#6c8ebf;spacingTop=-1;spacingBottom=-1;spacingLeft=-1;spacingRight=-1;points=[[1,0.5,0],[0.5,0.5,0],[0.5,0,0]];labelBackgroundColor=none;rounded=0;html=1;whiteSpace=wrap;" parent="1" vertex="1">
            <mxGeometry x="213" y="249" width="68" height="22" as="geometry" />
          </mxCell>
        </UserObject>
        <UserObject label="&lt;div style=&quot;font-size: 1px&quot;&gt;&lt;font style=&quot;font-size:14.11px;font-family:SimSun;color:#000000;direction:ltr;letter-spacing:0px;line-height:120%;opacity:1&quot;&gt;tidedisp&lt;br/&gt;&lt;/font&gt;&lt;/div&gt;" tags="流程图" id="5">
          <mxCell style="verticalAlign=middle;align=center;overflow=width;vsdxID=117;fillColor=#f5f5f5;shape=stencil(nZBLDoAgDERP0z3SIyjew0SURgSD+Lu9kMZoXLhwN9O+tukAlrNpJg1SzDH4QW/URgNYgZTkjA4UkwJUgGXng+6DX1zLfmoymdXo17xh5zmRJ6Q42BWCfc2oJfdAr+Yv+AP9Cb7OJ3H/2JG1HNGz/84klThPVCc=);strokeColor=#666666;spacingTop=-1;spacingBottom=-1;spacingLeft=-1;spacingRight=-1;points=[[1,0.5,0],[0.5,0.5,0],[0.5,0,0]];labelBackgroundColor=none;rounded=0;html=1;whiteSpace=wrap;fontColor=#333333;" parent="1" vertex="1">
            <mxGeometry x="312" y="270" width="78" height="22" as="geometry" />
          </mxCell>
        </UserObject>
        <UserObject label="&lt;div style=&quot;font-size: 1px&quot;&gt;&lt;font style=&quot;font-size:14.11px;font-family:SimSun;color:#000000;direction:ltr;letter-spacing:0px;line-height:120%;opacity:1&quot;&gt;geodist&lt;br/&gt;&lt;/font&gt;&lt;/div&gt;" tags="流程图" id="6">
          <mxCell style="verticalAlign=middle;align=center;overflow=width;vsdxID=118;fillColor=#dae8fc;shape=stencil(nZBLDoAgDERP0z3SIyjew0SURgSD+Lu9kMZoXLhwN9O+tukAlrNpJg1SzDH4QW/URgNYgZTkjA4UkwJUgGXng+6DX1zLfmoymdXo17xh5zmRJ6Q42BWCfc2oJfdAr+Yv+AP9Cb7OJ3H/2JG1HNGz/84klThPVCc=);strokeColor=#6c8ebf;spacingTop=-1;spacingBottom=-1;spacingLeft=-1;spacingRight=-1;points=[[1,0.5,0],[0.5,0.5,0],[0.5,0,0]];labelBackgroundColor=none;rounded=0;html=1;whiteSpace=wrap;" parent="1" vertex="1">
            <mxGeometry x="313" y="301" width="77" height="22" as="geometry" />
          </mxCell>
        </UserObject>
        <UserObject label="&lt;div style=&quot;font-size: 1px&quot;&gt;&lt;font style=&quot;font-size:14.11px;font-family:SimSun;color:#000000;direction:ltr;letter-spacing:0px;line-height:120%;opacity:1&quot;&gt;satazel&lt;br/&gt;&lt;/font&gt;&lt;/div&gt;" tags="流程图" id="7">
          <mxCell style="verticalAlign=middle;align=center;overflow=width;vsdxID=119;fillColor=#dae8fc;shape=stencil(nZBLDoAgDERP0z3SIyjew0SURgSD+Lu9kMZoXLhwN9O+tukAlrNpJg1SzDH4QW/URgNYgZTkjA4UkwJUgGXng+6DX1zLfmoymdXo17xh5zmRJ6Q42BWCfc2oJfdAr+Yv+AP9Cb7OJ3H/2JG1HNGz/84klThPVCc=);strokeColor=#6c8ebf;spacingTop=-1;spacingBottom=-1;spacingLeft=-1;spacingRight=-1;points=[[1,0.5,0],[0.5,0.5,0],[0.5,0,0]];labelBackgroundColor=none;rounded=0;html=1;whiteSpace=wrap;" parent="1" vertex="1">
            <mxGeometry x="313" y="332" width="77" height="22" as="geometry" />
          </mxCell>
        </UserObject>
        <UserObject label="&lt;div style=&quot;font-size: 1px&quot;&gt;&lt;font style=&quot;font-size:14.11px;font-family:SimSun;color:#000000;direction:ltr;letter-spacing:0px;line-height:120%;opacity:1&quot;&gt;satexclude&lt;br/&gt;&lt;/font&gt;&lt;/div&gt;" tags="流程图" id="8">
          <mxCell style="verticalAlign=middle;align=center;overflow=width;vsdxID=120;fillColor=#f5f5f5;shape=stencil(nZBLDoAgDERP0z3SIyjew0SURgSD+Lu9kMZoXLhwN9O+tukAlrNpJg1SzDH4QW/URgNYgZTkjA4UkwJUgGXng+6DX1zLfmoymdXo17xh5zmRJ6Q42BWCfc2oJfdAr+Yv+AP9Cb7OJ3H/2JG1HNGz/84klThPVCc=);strokeColor=#666666;spacingTop=-1;spacingBottom=-1;spacingLeft=-1;spacingRight=-1;points=[[1,0.5,0],[0.5,0.5,0],[0.5,0,0]];labelBackgroundColor=none;rounded=0;html=1;whiteSpace=wrap;fontColor=#333333;" parent="1" vertex="1">
            <mxGeometry x="313" y="363" width="78" height="22" as="geometry" />
          </mxCell>
        </UserObject>
        <UserObject label="&lt;div style=&quot;font-size: 1px&quot;&gt;&lt;font style=&quot;font-size:14.11px;font-family:SimSun;color:#000000;direction:ltr;letter-spacing:0px;line-height:120%;opacity:1&quot;&gt;tropmodel&lt;br/&gt;&lt;/font&gt;&lt;/div&gt;" tags="流程图" id="9">
          <mxCell style="verticalAlign=middle;align=center;overflow=width;vsdxID=121;fillColor=#f5f5f5;shape=stencil(nZBLDoAgDERP0z3SIyjew0SURgSD+Lu9kMZoXLhwN9O+tukAlrNpJg1SzDH4QW/URgNYgZTkjA4UkwJUgGXng+6DX1zLfmoymdXo17xh5zmRJ6Q42BWCfc2oJfdAr+Yv+AP9Cb7OJ3H/2JG1HNGz/84klThPVCc=);strokeColor=#666666;spacingTop=-1;spacingBottom=-1;spacingLeft=-1;spacingRight=-1;points=[[1,0.5,0],[0.5,0.5,0],[0.5,0,0]];labelBackgroundColor=none;rounded=0;html=1;whiteSpace=wrap;fontColor=#333333;" parent="1" vertex="1">
            <mxGeometry x="313" y="395" width="78" height="22" as="geometry" />
          </mxCell>
        </UserObject>
        <UserObject label="&lt;div style=&quot;font-size: 1px&quot;&gt;&lt;font style=&quot;font-size:14.11px;font-family:SimSun;color:#000000;direction:ltr;letter-spacing:0px;line-height:120%;opacity:1&quot;&gt;tropmapf&lt;br/&gt;&lt;/font&gt;&lt;/div&gt;" tags="流程图" id="10">
          <mxCell style="verticalAlign=middle;align=center;overflow=width;vsdxID=122;fillColor=#f5f5f5;shape=stencil(nZBLDoAgDERP0z3SIyjew0SURgSD+Lu9kMZoXLhwN9O+tukAlrNpJg1SzDH4QW/URgNYgZTkjA4UkwJUgGXng+6DX1zLfmoymdXo17xh5zmRJ6Q42BWCfc2oJfdAr+Yv+AP9Cb7OJ3H/2JG1HNGz/84klThPVCc=);strokeColor=#666666;spacingTop=-1;spacingBottom=-1;spacingLeft=-1;spacingRight=-1;points=[[1,0.5,0],[0.5,0.5,0],[0.5,0,0]];labelBackgroundColor=none;rounded=0;html=1;whiteSpace=wrap;fontColor=#333333;" parent="1" vertex="1">
            <mxGeometry x="313" y="426" width="78" height="22" as="geometry" />
          </mxCell>
        </UserObject>
        <UserObject label="&lt;div style=&quot;font-size: 1px&quot;&gt;&lt;font style=&quot;font-size:14.11px;font-family:SimSun;color:#000000;direction:ltr;letter-spacing:0px;line-height:120%;opacity:1&quot;&gt;antmodel&lt;br/&gt;&lt;/font&gt;&lt;/div&gt;" tags="流程图" id="11">
          <mxCell style="verticalAlign=middle;align=center;overflow=width;vsdxID=123;fillColor=#f5f5f5;shape=stencil(nZBLDoAgDERP0z3SIyjew0SURgSD+Lu9kMZoXLhwN9O+tukAlrNpJg1SzDH4QW/URgNYgZTkjA4UkwJUgGXng+6DX1zLfmoymdXo17xh5zmRJ6Q42BWCfc2oJfdAr+Yv+AP9Cb7OJ3H/2JG1HNGz/84klThPVCc=);strokeColor=#666666;spacingTop=-1;spacingBottom=-1;spacingLeft=-1;spacingRight=-1;points=[[1,0.5,0],[0.5,0.5,0],[0.5,0,0]];labelBackgroundColor=none;rounded=0;html=1;whiteSpace=wrap;fontColor=#333333;" parent="1" vertex="1">
            <mxGeometry x="313" y="487" width="78" height="22" as="geometry" />
          </mxCell>
        </UserObject>
        <UserObject label="&lt;div style=&quot;font-size: 1px&quot;&gt;&lt;font style=&quot;font-size:14.11px;font-family:SimSun;color:#000000;direction:ltr;letter-spacing:0px;line-height:120%;opacity:1&quot;&gt;zdres_sat&lt;br/&gt;&lt;/font&gt;&lt;/div&gt;" tags="流程图" id="12">
          <mxCell style="verticalAlign=middle;align=center;overflow=width;vsdxID=124;fillColor=#dae8fc;shape=stencil(nZBLDoAgDERP0z3SIyjew0SURgSD+Lu9kMZoXLhwN9O+tukAlrNpJg1SzDH4QW/URgNYgZTkjA4UkwJUgGXng+6DX1zLfmoymdXo17xh5zmRJ6Q42BWCfc2oJfdAr+Yv+AP9Cb7OJ3H/2JG1HNGz/84klThPVCc=);strokeColor=#6c8ebf;spacingTop=-1;spacingBottom=-1;spacingLeft=-1;spacingRight=-1;points=[[1,0.5,0],[0.5,0.5,0],[0.5,0,0]];labelBackgroundColor=none;rounded=0;html=1;whiteSpace=wrap;" parent="1" vertex="1">
            <mxGeometry x="313" y="532" width="78" height="22" as="geometry" />
          </mxCell>
        </UserObject>
        <UserObject label="&lt;div style=&quot;font-size: 1px&quot;&gt;&lt;font style=&quot;font-size:14.11px;font-family:SimSun;color:#000000;direction:ltr;letter-spacing:0px;line-height:120%;opacity:1&quot;&gt;geterp&lt;br/&gt;&lt;/font&gt;&lt;/div&gt;" tags="流程图" id="13">
          <mxCell style="verticalAlign=middle;align=center;overflow=width;vsdxID=125;fillColor=#f5f5f5;shape=stencil(nZBLDoAgDERP0z3SIyjew0SURgSD+Lu9kMZoXLhwN9O+tukAlrNpJg1SzDH4QW/URgNYgZTkjA4UkwJUgGXng+6DX1zLfmoymdXo17xh5zmRJ6Q42BWCfc2oJfdAr+Yv+AP9Cb7OJ3H/2JG1HNGz/84klThPVCc=);strokeColor=#666666;spacingTop=-1;spacingBottom=-1;spacingLeft=-1;spacingRight=-1;points=[[1,0.5,0],[0.5,0.5,0],[0.5,0,0]];labelBackgroundColor=none;rounded=0;html=1;whiteSpace=wrap;fontColor=#333333;" parent="1" vertex="1">
            <mxGeometry x="432" y="212" width="114" height="22" as="geometry" />
          </mxCell>
        </UserObject>
        <UserObject label="&lt;div style=&quot;font-size: 1px&quot;&gt;&lt;font style=&quot;font-size:14.11px;font-family:SimSun;color:#000000;direction:ltr;letter-spacing:0px;line-height:120%;opacity:1&quot;&gt;sunmoonpos&lt;br/&gt;&lt;/font&gt;&lt;/div&gt;" tags="流程图" id="14">
          <mxCell style="verticalAlign=middle;align=center;overflow=width;vsdxID=126;fillColor=#f5f5f5;shape=stencil(nZBLDoAgDERP0z3SIyjew0SURgSD+Lu9kMZoXLhwN9O+tukAlrNpJg1SzDH4QW/URgNYgZTkjA4UkwJUgGXng+6DX1zLfmoymdXo17xh5zmRJ6Q42BWCfc2oJfdAr+Yv+AP9Cb7OJ3H/2JG1HNGz/84klThPVCc=);strokeColor=#666666;spacingTop=-1;spacingBottom=-1;spacingLeft=-1;spacingRight=-1;points=[[1,0.5,0],[0.5,0.5,0],[0.5,0,0]];labelBackgroundColor=none;rounded=0;html=1;whiteSpace=wrap;fontColor=#333333;" parent="1" vertex="1">
            <mxGeometry x="432" y="241" width="114" height="22" as="geometry" />
          </mxCell>
        </UserObject>
        <UserObject label="&lt;div style=&quot;font-size: 1px&quot;&gt;&lt;font style=&quot;font-size:14.11px;font-family:SimSun;color:#000000;direction:ltr;letter-spacing:0px;line-height:120%;opacity:1&quot;&gt;dehanttideinel_&lt;br/&gt;&lt;/font&gt;&lt;/div&gt;" tags="流程图" id="15">
          <mxCell style="verticalAlign=middle;align=center;overflow=width;vsdxID=127;fillColor=#f5f5f5;shape=stencil(nZBLDoAgDERP0z3SIyjew0SURgSD+Lu9kMZoXLhwN9O+tukAlrNpJg1SzDH4QW/URgNYgZTkjA4UkwJUgGXng+6DX1zLfmoymdXo17xh5zmRJ6Q42BWCfc2oJfdAr+Yv+AP9Cb7OJ3H/2JG1HNGz/84klThPVCc=);strokeColor=#666666;spacingTop=-1;spacingBottom=-1;spacingLeft=-1;spacingRight=-1;points=[[1,0.5,0],[0.5,0.5,0],[0.5,0,0]];labelBackgroundColor=none;rounded=0;html=1;whiteSpace=wrap;fontColor=#333333;" parent="1" vertex="1">
            <mxGeometry x="432" y="270" width="114" height="22" as="geometry" />
          </mxCell>
        </UserObject>
        <UserObject label="&lt;div style=&quot;font-size: 1px&quot;&gt;&lt;font style=&quot;font-size:14.11px;font-family:SimSun;color:#000000;direction:ltr;letter-spacing:0px;line-height:120%;opacity:1&quot;&gt;tide_solid_&lt;br/&gt;&lt;/font&gt;&lt;/div&gt;" tags="流程图" id="16">
          <mxCell style="verticalAlign=middle;align=center;overflow=width;vsdxID=128;fillColor=#f5f5f5;shape=stencil(nZBLDoAgDERP0z3SIyjew0SURgSD+Lu9kMZoXLhwN9O+tukAlrNpJg1SzDH4QW/URgNYgZTkjA4UkwJUgGXng+6DX1zLfmoymdXo17xh5zmRJ6Q42BWCfc2oJfdAr+Yv+AP9Cb7OJ3H/2JG1HNGz/84klThPVCc=);strokeColor=#666666;spacingTop=-1;spacingBottom=-1;spacingLeft=-1;spacingRight=-1;points=[[1,0.5,0],[0.5,0.5,0],[0.5,0,0]];labelBackgroundColor=none;rounded=0;html=1;whiteSpace=wrap;fontColor=#333333;" parent="1" vertex="1">
            <mxGeometry x="432" y="300" width="114" height="22" as="geometry" />
          </mxCell>
        </UserObject>
        <UserObject label="&lt;div style=&quot;font-size: 1px&quot;&gt;&lt;font style=&quot;font-size:14.11px;font-family:SimSun;color:#000000;direction:ltr;letter-spacing:0px;line-height:120%;opacity:1&quot;&gt;tide_oload_&lt;br/&gt;&lt;/font&gt;&lt;/div&gt;" tags="流程图" id="17">
          <mxCell style="verticalAlign=middle;align=center;overflow=width;vsdxID=129;fillColor=#f5f5f5;shape=stencil(nZBLDoAgDERP0z3SIyjew0SURgSD+Lu9kMZoXLhwN9O+tukAlrNpJg1SzDH4QW/URgNYgZTkjA4UkwJUgGXng+6DX1zLfmoymdXo17xh5zmRJ6Q42BWCfc2oJfdAr+Yv+AP9Cb7OJ3H/2JG1HNGz/84klThPVCc=);strokeColor=#666666;spacingTop=-1;spacingBottom=-1;spacingLeft=-1;spacingRight=-1;points=[[1,0.5,0],[0.5,0.5,0],[0.5,0,0]];labelBackgroundColor=none;rounded=0;html=1;whiteSpace=wrap;fontColor=#333333;" parent="1" vertex="1">
            <mxGeometry x="432" y="329" width="114" height="22" as="geometry" />
          </mxCell>
        </UserObject>
        <UserObject label="&lt;div style=&quot;font-size: 1px&quot;&gt;&lt;font style=&quot;font-size:14.11px;font-family:SimSun;color:#000000;direction:ltr;letter-spacing:0px;line-height:120%;opacity:1&quot;&gt;tide_pole&lt;br/&gt;&lt;/font&gt;&lt;/div&gt;" tags="流程图" id="18">
          <mxCell style="verticalAlign=middle;align=center;overflow=width;vsdxID=130;fillColor=#f5f5f5;shape=stencil(nZBLDoAgDERP0z3SIyjew0SURgSD+Lu9kMZoXLhwN9O+tukAlrNpJg1SzDH4QW/URgNYgZTkjA4UkwJUgGXng+6DX1zLfmoymdXo17xh5zmRJ6Q42BWCfc2oJfdAr+Yv+AP9Cb7OJ3H/2JG1HNGz/84klThPVCc=);strokeColor=#666666;spacingTop=-1;spacingBottom=-1;spacingLeft=-1;spacingRight=-1;points=[[1,0.5,0],[0.5,0.5,0],[0.5,0,0]];labelBackgroundColor=none;rounded=0;html=1;whiteSpace=wrap;fontColor=#333333;" parent="1" vertex="1">
            <mxGeometry x="431" y="359" width="114" height="22" as="geometry" />
          </mxCell>
        </UserObject>
        <UserObject label="&lt;div style=&quot;font-size: 1px&quot;&gt;&lt;font style=&quot;font-size:14.11px;font-family:SimSun;color:#000000;direction:ltr;letter-spacing:0px;line-height:120%;opacity:1&quot;&gt;sunmoonpos_eci&lt;br/&gt;&lt;/font&gt;&lt;/div&gt;" tags="流程图" id="19">
          <mxCell style="verticalAlign=middle;align=center;overflow=width;vsdxID=131;fillColor=#f5f5f5;shape=stencil(nZBLDoAgDERP0z3SIyjew0SURgSD+Lu9kMZoXLhwN9O+tukAlrNpJg1SzDH4QW/URgNYgZTkjA4UkwJUgGXng+6DX1zLfmoymdXo17xh5zmRJ6Q42BWCfc2oJfdAr+Yv+AP9Cb7OJ3H/2JG1HNGz/84klThPVCc=);strokeColor=#666666;spacingTop=-1;spacingBottom=-1;spacingLeft=-1;spacingRight=-1;points=[[1,0.5,0],[0.5,0.5,0],[0.5,0,0]];labelBackgroundColor=none;rounded=0;html=1;whiteSpace=wrap;fontColor=#333333;" parent="1" vertex="1">
            <mxGeometry x="566" y="241" width="114" height="22" as="geometry" />
          </mxCell>
        </UserObject>
        <UserObject label="&lt;div style=&quot;font-size: 1px&quot;&gt;&lt;font style=&quot;font-size:14.11px;font-family:SimSun;color:#000000;direction:ltr;letter-spacing:0px;line-height:120%;opacity:1&quot;&gt;tide_pl&lt;br/&gt;&lt;/font&gt;&lt;/div&gt;" tags="流程图" id="20">
          <mxCell style="verticalAlign=middle;align=center;overflow=width;vsdxID=132;fillColor=#f5f5f5;shape=stencil(nZBLDoAgDERP0z3SIyjew0SURgSD+Lu9kMZoXLhwN9O+tukAlrNpJg1SzDH4QW/URgNYgZTkjA4UkwJUgGXng+6DX1zLfmoymdXo17xh5zmRJ6Q42BWCfc2oJfdAr+Yv+AP9Cb7OJ3H/2JG1HNGz/84klThPVCc=);strokeColor=#666666;spacingTop=-1;spacingBottom=-1;spacingLeft=-1;spacingRight=-1;points=[[1,0.5,0],[0.5,0.5,0],[0.5,0,0]];labelBackgroundColor=none;rounded=0;html=1;whiteSpace=wrap;fontColor=#333333;" parent="1" vertex="1">
            <mxGeometry x="566" y="300" width="74" height="22" as="geometry" />
          </mxCell>
        </UserObject>
        <UserObject label="&lt;div style=&quot;font-size: 1px&quot;&gt;&lt;font style=&quot;font-size:14.11px;font-family:SimSun;color:#000000;direction:ltr;letter-spacing:0px;line-height:120%;opacity:1&quot;&gt;iers_mean_pole&lt;br/&gt;&lt;/font&gt;&lt;/div&gt;" tags="流程图" id="21">
          <mxCell style="verticalAlign=middle;align=center;overflow=width;vsdxID=133;fillColor=#f5f5f5;shape=stencil(nZBLDoAgDERP0z3SIyjew0SURgSD+Lu9kMZoXLhwN9O+tukAlrNpJg1SzDH4QW/URgNYgZTkjA4UkwJUgGXng+6DX1zLfmoymdXo17xh5zmRJ6Q42BWCfc2oJfdAr+Yv+AP9Cb7OJ3H/2JG1HNGz/84klThPVCc=);strokeColor=#666666;spacingTop=-1;spacingBottom=-1;spacingLeft=-1;spacingRight=-1;points=[[1,0.5,0],[0.5,0.5,0],[0.5,0,0]];labelBackgroundColor=none;rounded=0;html=1;whiteSpace=wrap;fontColor=#333333;" parent="1" vertex="1">
            <mxGeometry x="566" y="359" width="114" height="22" as="geometry" />
          </mxCell>
        </UserObject>
        <UserObject label="&lt;div style=&quot;font-size: 1px&quot;&gt;&lt;font style=&quot;font-size:14.11px;font-family:SimSun;color:#000000;direction:ltr;letter-spacing:0px;line-height:120%;opacity:1&quot;&gt;geoidh&lt;br/&gt;&lt;/font&gt;&lt;/div&gt;" tags="流程图" id="22">
          <mxCell style="verticalAlign=middle;align=center;overflow=width;vsdxID=137;fillColor=#f5f5f5;shape=stencil(nZBLDoAgDERP0z3SIyjew0SURgSD+Lu9kMZoXLhwN9O+tukAlrNpJg1SzDH4QW/URgNYgZTkjA4UkwJUgGXng+6DX1zLfmoymdXo17xh5zmRJ6Q42BWCfc2oJfdAr+Yv+AP9Cb7OJ3H/2JG1HNGz/84klThPVCc=);strokeColor=#666666;spacingTop=-1;spacingBottom=-1;spacingLeft=-1;spacingRight=-1;points=[[1,0.5,0],[0.5,0.5,0],[0.5,0,0]];labelBackgroundColor=none;rounded=0;html=1;whiteSpace=wrap;fontColor=#333333;" parent="1" vertex="1">
            <mxGeometry x="430" y="396" width="59" height="22" as="geometry" />
          </mxCell>
        </UserObject>
        <UserObject label="&lt;div style=&quot;font-size: 1px&quot;&gt;&lt;font style=&quot;font-size:14.11px;font-family:SimSun;color:#000000;direction:ltr;letter-spacing:0px;line-height:120%;opacity:1&quot;&gt;gmf_&lt;br/&gt;&lt;/font&gt;&lt;/div&gt;" tags="流程图" id="23">
          <mxCell style="verticalAlign=middle;align=center;overflow=width;vsdxID=138;fillColor=#f5f5f5;shape=stencil(nZBLDoAgDERP0z3SIyjew0SURgSD+Lu9kMZoXLhwN9O+tukAlrNpJg1SzDH4QW/URgNYgZTkjA4UkwJUgGXng+6DX1zLfmoymdXo17xh5zmRJ6Q42BWCfc2oJfdAr+Yv+AP9Cb7OJ3H/2JG1HNGz/84klThPVCc=);strokeColor=#666666;spacingTop=-1;spacingBottom=-1;spacingLeft=-1;spacingRight=-1;points=[[1,0.5,0],[0.5,0.5,0],[0.5,0,0]];labelBackgroundColor=none;rounded=0;html=1;whiteSpace=wrap;fontColor=#333333;" parent="1" vertex="1">
            <mxGeometry x="430" y="426" width="59" height="22" as="geometry" />
          </mxCell>
        </UserObject>
        <UserObject label="&lt;div style=&quot;font-size: 1px&quot;&gt;&lt;font style=&quot;font-size:14.11px;font-family:SimSun;color:#000000;direction:ltr;letter-spacing:0px;line-height:120%;opacity:1&quot;&gt;geoidh_egm96&lt;br/&gt;&lt;/font&gt;&lt;/div&gt;" tags="流程图" id="24">
          <mxCell style="verticalAlign=middle;align=center;overflow=width;vsdxID=139;fillColor=#f5f5f5;shape=stencil(nZBLDoAgDERP0z3SIyjew0SURgSD+Lu9kMZoXLhwN9O+tukAlrNpJg1SzDH4QW/URgNYgZTkjA4UkwJUgGXng+6DX1zLfmoymdXo17xh5zmRJ6Q42BWCfc2oJfdAr+Yv+AP9Cb7OJ3H/2JG1HNGz/84klThPVCc=);strokeColor=#666666;spacingTop=-1;spacingBottom=-1;spacingLeft=-1;spacingRight=-1;points=[[0,0.5,0],[1,0.5,0],[0.5,1,0],[0.5,0,0]];labelBackgroundColor=none;rounded=0;html=1;whiteSpace=wrap;fontColor=#333333;" parent="1" vertex="1">
            <mxGeometry x="612" y="396" width="100" height="22" as="geometry" />
          </mxCell>
        </UserObject>
        <UserObject label="&lt;div style=&quot;font-size: 1px&quot;&gt;&lt;font style=&quot;font-size:14.11px;font-family:SimSun;color:#000000;direction:ltr;letter-spacing:0px;line-height:120%;opacity:1&quot;&gt;nmf&lt;br/&gt;&lt;/font&gt;&lt;/div&gt;" tags="流程图" id="25">
          <mxCell style="verticalAlign=middle;align=center;overflow=width;vsdxID=140;fillColor=#f5f5f5;shape=stencil(nZBLDoAgDERP0z3SIyjew0SURgSD+Lu9kMZoXLhwN9O+tukAlrNpJg1SzDH4QW/URgNYgZTkjA4UkwJUgGXng+6DX1zLfmoymdXo17xh5zmRJ6Q42BWCfc2oJfdAr+Yv+AP9Cb7OJ3H/2JG1HNGz/84klThPVCc=);strokeColor=#666666;spacingTop=-1;spacingBottom=-1;spacingLeft=-1;spacingRight=-1;points=[[1,0.5,0],[0.5,0.5,0],[0.5,0,0]];labelBackgroundColor=none;rounded=0;html=1;whiteSpace=wrap;fontColor=#333333;" parent="1" vertex="1">
            <mxGeometry x="430" y="456" width="59" height="22" as="geometry" />
          </mxCell>
        </UserObject>
        <UserObject label="&lt;div style=&quot;font-size: 1px&quot;&gt;&lt;font style=&quot;font-size:14.11px;font-family:SimSun;color:#000000;direction:ltr;letter-spacing:0px;line-height:120%;opacity:1&quot;&gt;geoidh_egm08&lt;br/&gt;&lt;/font&gt;&lt;/div&gt;" tags="流程图" id="26">
          <mxCell style="verticalAlign=middle;align=center;overflow=width;vsdxID=141;fillColor=#f5f5f5;shape=stencil(nZBLDoAgDERP0z3SIyjew0SURgSD+Lu9kMZoXLhwN9O+tukAlrNpJg1SzDH4QW/URgNYgZTkjA4UkwJUgGXng+6DX1zLfmoymdXo17xh5zmRJ6Q42BWCfc2oJfdAr+Yv+AP9Cb7OJ3H/2JG1HNGz/84klThPVCc=);strokeColor=#666666;spacingTop=-1;spacingBottom=-1;spacingLeft=-1;spacingRight=-1;points=[[0,0.5,0],[1,0.5,0],[0.5,1,0],[0.5,0,0]];labelBackgroundColor=none;rounded=0;html=1;whiteSpace=wrap;fontColor=#333333;" parent="1" vertex="1">
            <mxGeometry x="512" y="396" width="100" height="22" as="geometry" />
          </mxCell>
        </UserObject>
        <UserObject label="&lt;div style=&quot;font-size: 1px&quot;&gt;&lt;font style=&quot;font-size:14.11px;font-family:SimSun;color:#000000;direction:ltr;letter-spacing:0px;line-height:120%;opacity:1&quot;&gt;geoidh_gsi&lt;br/&gt;&lt;/font&gt;&lt;/div&gt;" tags="流程图" id="27">
          <mxCell style="verticalAlign=middle;align=center;overflow=width;vsdxID=142;fillColor=#f5f5f5;shape=stencil(nZBLDoAgDERP0z3SIyjew0SURgSD+Lu9kMZoXLhwN9O+tukAlrNpJg1SzDH4QW/URgNYgZTkjA4UkwJUgGXng+6DX1zLfmoymdXo17xh5zmRJ6Q42BWCfc2oJfdAr+Yv+AP9Cb7OJ3H/2JG1HNGz/84klThPVCc=);strokeColor=#666666;spacingTop=-1;spacingBottom=-1;spacingLeft=-1;spacingRight=-1;points=[[1,0.5,0],[0.5,0.5,0],[0.5,0,0]];labelBackgroundColor=none;rounded=0;html=1;whiteSpace=wrap;fontColor=#333333;" parent="1" vertex="1">
            <mxGeometry x="712" y="396" width="88" height="22" as="geometry" />
          </mxCell>
        </UserObject>
        <UserObject label="&lt;div style=&quot;font-size: 1px&quot;&gt;&lt;font style=&quot;font-size:14.11px;font-family:SimSun;color:#000000;direction:ltr;letter-spacing:0px;line-height:120%;opacity:1&quot;&gt;geoidh_emb&lt;br/&gt;&lt;/font&gt;&lt;/div&gt;" tags="流程图" id="28">
          <mxCell style="verticalAlign=middle;align=center;overflow=width;vsdxID=145;fillColor=#f5f5f5;shape=stencil(nZBLDoAgDERP0z3SIyjew0SURgSD+Lu9kMZoXLhwN9O+tukAlrNpJg1SzDH4QW/URgNYgZTkjA4UkwJUgGXng+6DX1zLfmoymdXo17xh5zmRJ6Q42BWCfc2oJfdAr+Yv+AP9Cb7OJ3H/2JG1HNGz/84klThPVCc=);strokeColor=#666666;spacingTop=-1;spacingBottom=-1;spacingLeft=-1;spacingRight=-1;points=[[1,0.5,0],[0.5,0.5,0],[0.5,0,0]];labelBackgroundColor=none;rounded=0;html=1;whiteSpace=wrap;fontColor=#333333;" parent="1" vertex="1">
            <mxGeometry x="712" y="418" width="88" height="22" as="geometry" />
          </mxCell>
        </UserObject>
        <UserObject label="&lt;div style=&quot;font-size: 1px&quot;&gt;&lt;font style=&quot;font-size:14.11px;font-family:SimSun;color:#000000;direction:ltr;letter-spacing:0px;line-height:120%;opacity:1&quot;&gt;interpc&lt;br/&gt;&lt;/font&gt;&lt;/div&gt;" tags="流程图" id="29">
          <mxCell style="verticalAlign=middle;align=center;overflow=width;vsdxID=146;fillColor=#f5f5f5;shape=stencil(nZBLDoAgDERP0z3SIyjew0SURgSD+Lu9kMZoXLhwN9O+tukAlrNpJg1SzDH4QW/URgNYgZTkjA4UkwJUgGXng+6DX1zLfmoymdXo17xh5zmRJ6Q42BWCfc2oJfdAr+Yv+AP9Cb7OJ3H/2JG1HNGz/84klThPVCc=);strokeColor=#666666;spacingTop=-1;spacingBottom=-1;spacingLeft=-1;spacingRight=-1;points=[[1,0.5,0],[0.5,0.5,0],[0.5,0,0]];labelBackgroundColor=none;rounded=0;html=1;whiteSpace=wrap;fontColor=#333333;" parent="1" vertex="1">
            <mxGeometry x="538" y="445" width="59" height="22" as="geometry" />
          </mxCell>
        </UserObject>
        <UserObject label="&lt;div style=&quot;font-size: 1px&quot;&gt;&lt;font style=&quot;font-size:14.11px;font-family:SimSun;color:#000000;direction:ltr;letter-spacing:0px;line-height:120%;opacity:1&quot;&gt;mapf&lt;br/&gt;&lt;/font&gt;&lt;/div&gt;" tags="流程图" id="30">
          <mxCell style="verticalAlign=middle;align=center;overflow=width;vsdxID=147;fillColor=#f5f5f5;shape=stencil(nZBLDoAgDERP0z3SIyjew0SURgSD+Lu9kMZoXLhwN9O+tukAlrNpJg1SzDH4QW/URgNYgZTkjA4UkwJUgGXng+6DX1zLfmoymdXo17xh5zmRJ6Q42BWCfc2oJfdAr+Yv+AP9Cb7OJ3H/2JG1HNGz/84klThPVCc=);strokeColor=#666666;spacingTop=-1;spacingBottom=-1;spacingLeft=-1;spacingRight=-1;points=[[1,0.5,0],[0.5,0.5,0],[0.5,0,0]];labelBackgroundColor=none;rounded=0;html=1;whiteSpace=wrap;fontColor=#333333;" parent="1" vertex="1">
            <mxGeometry x="538" y="477" width="59" height="22" as="geometry" />
          </mxCell>
        </UserObject>
        <UserObject label="&lt;div style=&quot;font-size: 1px&quot;&gt;&lt;font style=&quot;font-size:14.11px;font-family:SimSun;color:#000000;direction:ltr;letter-spacing:0px;line-height:120%;opacity:1&quot;&gt;interpvar&lt;br/&gt;&lt;/font&gt;&lt;/div&gt;" tags="流程图" id="31">
          <mxCell style="verticalAlign=middle;align=center;overflow=width;vsdxID=148;fillColor=#f5f5f5;shape=stencil(nZBLDoAgDERP0z3SIyjew0SURgSD+Lu9kMZoXLhwN9O+tukAlrNpJg1SzDH4QW/URgNYgZTkjA4UkwJUgGXng+6DX1zLfmoymdXo17xh5zmRJ6Q42BWCfc2oJfdAr+Yv+AP9Cb7OJ3H/2JG1HNGz/84klThPVCc=);strokeColor=#666666;spacingTop=-1;spacingBottom=-1;spacingLeft=-1;spacingRight=-1;points=[[1,0.5,0],[0.5,0.5,0],[0.5,0,0]];labelBackgroundColor=none;rounded=0;html=1;whiteSpace=wrap;fontColor=#333333;" parent="1" vertex="1">
            <mxGeometry x="430" y="487" width="74" height="22" as="geometry" />
          </mxCell>
        </UserObject>
        <UserObject label="&lt;div style=&quot;font-size: 1px&quot;&gt;&lt;font style=&quot;font-size:14.11px;font-family:SimSun;color:#000000;direction:ltr;letter-spacing:0px;line-height:120%;opacity:1&quot;&gt;sat2freq&lt;br/&gt;&lt;/font&gt;&lt;/div&gt;" tags="流程图" id="32">
          <mxCell style="verticalAlign=middle;align=center;overflow=width;vsdxID=240;fillColor=#f5f5f5;shape=stencil(nZBLDoAgDERP0z3SIyjew0SURgSD+Lu9kMZoXLhwN9O+tukAlrNpJg1SzDH4QW/URgNYgZTkjA4UkwJUgGXng+6DX1zLfmoymdXo17xh5zmRJ6Q42BWCfc2oJfdAr+Yv+AP9Cb7OJ3H/2JG1HNGz/84klThPVCc=);strokeColor=#666666;spacingTop=-1;spacingBottom=-1;spacingLeft=-1;spacingRight=-1;points=[[1,0.5,0],[0.5,0.5,0],[0.5,0,0]];labelBackgroundColor=none;rounded=0;html=1;whiteSpace=wrap;fontColor=#333333;" parent="1" vertex="1">
            <mxGeometry x="433" y="519" width="74" height="22" as="geometry" />
          </mxCell>
        </UserObject>
        <UserObject label="&lt;div style=&quot;font-size: 1px&quot;&gt;&lt;font style=&quot;font-size:14.11px;font-family:SimSun;color:#000000;direction:ltr;letter-spacing:0px;line-height:120%;opacity:1&quot;&gt;testsnr&lt;br/&gt;&lt;/font&gt;&lt;/div&gt;" tags="流程图" id="33">
          <mxCell style="verticalAlign=middle;align=center;overflow=width;vsdxID=241;fillColor=#f5f5f5;shape=stencil(nZBLDoAgDERP0z3SIyjew0SURgSD+Lu9kMZoXLhwN9O+tukAlrNpJg1SzDH4QW/URgNYgZTkjA4UkwJUgGXng+6DX1zLfmoymdXo17xh5zmRJ6Q42BWCfc2oJfdAr+Yv+AP9Cb7OJ3H/2JG1HNGz/84klThPVCc=);strokeColor=#666666;spacingTop=-1;spacingBottom=-1;spacingLeft=-1;spacingRight=-1;points=[[1,0.5,0],[0.5,0.5,0],[0.5,0,0]];labelBackgroundColor=none;rounded=0;html=1;whiteSpace=wrap;fontColor=#333333;" parent="1" vertex="1">
            <mxGeometry x="433" y="550" width="74" height="22" as="geometry" />
          </mxCell>
        </UserObject>
        <UserObject label="&lt;div style=&quot;font-size: 1px&quot;&gt;&lt;font style=&quot;font-size:14.11px;font-family:SimSun;color:#000000;direction:ltr;letter-spacing:0px;line-height:120%;opacity:1&quot;&gt;intpres&lt;br/&gt;&lt;/font&gt;&lt;/div&gt;" tags="流程图" id="34">
          <mxCell style="verticalAlign=middle;align=center;overflow=width;vsdxID=243;fillColor=#f5f5f5;shape=stencil(nZBLDoAgDERP0z3SIyjew0SURgSD+Lu9kMZoXLhwN9O+tukAlrNpJg1SzDH4QW/URgNYgZTkjA4UkwJUgGXng+6DX1zLfmoymdXo17xh5zmRJ6Q42BWCfc2oJfdAr+Yv+AP9Cb7OJ3H/2JG1HNGz/84klThPVCc=);strokeColor=#666666;spacingTop=-1;spacingBottom=-1;spacingLeft=-1;spacingRight=-1;points=[[1,0.5,0],[0.5,0.5,0],[0.5,0,0]];labelBackgroundColor=none;rounded=0;html=1;whiteSpace=wrap;fontColor=#333333;" parent="1" vertex="1">
            <mxGeometry x="213" y="370" width="68" height="22" as="geometry" />
          </mxCell>
        </UserObject>
        <UserObject label="&lt;div style=&quot;font-size: 1px&quot;&gt;&lt;font style=&quot;font-size:14.11px;font-family:SimSun;color:#000000;direction:ltr;letter-spacing:0px;line-height:120%;opacity:1&quot;&gt;selsat&lt;br/&gt;&lt;/font&gt;&lt;/div&gt;" tags="流程图" id="35">
          <mxCell style="verticalAlign=middle;align=center;overflow=width;vsdxID=244;fillColor=#dae8fc;shape=stencil(nZBLDoAgDERP0z3SIyjew0SURgSD+Lu9kMZoXLhwN9O+tukAlrNpJg1SzDH4QW/URgNYgZTkjA4UkwJUgGXng+6DX1zLfmoymdXo17xh5zmRJ6Q42BWCfc2oJfdAr+Yv+AP9Cb7OJ3H/2JG1HNGz/84klThPVCc=);strokeColor=#6c8ebf;spacingTop=-1;spacingBottom=-1;spacingLeft=-1;spacingRight=-1;points=[[1,0.5,0],[0.5,0.5,0],[0.5,0,0]];labelBackgroundColor=none;rounded=0;html=1;whiteSpace=wrap;" parent="1" vertex="1">
            <mxGeometry x="213" y="412" width="68" height="22" as="geometry" />
          </mxCell>
        </UserObject>
        <UserObject label="&lt;div style=&quot;font-size: 1px&quot;&gt;&lt;font style=&quot;font-size:14.11px;font-family:SimSun;color:#000000;direction:ltr;letter-spacing:0px;line-height:120%;opacity:1&quot;&gt;udstate&lt;br/&gt;&lt;/font&gt;&lt;/div&gt;" tags="流程图" id="36">
          <mxCell style="verticalAlign=middle;align=center;overflow=width;vsdxID=245;fillColor=#dae8fc;shape=stencil(nZBLDoAgDERP0z3SIyjew0SURgSD+Lu9kMZoXLhwN9O+tukAlrNpJg1SzDH4QW/URgNYgZTkjA4UkwJUgGXng+6DX1zLfmoymdXo17xh5zmRJ6Q42BWCfc2oJfdAr+Yv+AP9Cb7OJ3H/2JG1HNGz/84klThPVCc=);strokeColor=#6c8ebf;spacingTop=-1;spacingBottom=-1;spacingLeft=-1;spacingRight=-1;points=[[1,0.5,0],[0.5,0.5,0],[0.5,0,0]];labelBackgroundColor=none;rounded=0;html=1;whiteSpace=wrap;" parent="1" vertex="1">
            <mxGeometry x="212" y="613" width="68" height="22" as="geometry" />
          </mxCell>
        </UserObject>
        <UserObject label="&lt;div style=&quot;font-size: 1px&quot;&gt;&lt;font style=&quot;font-size:14.11px;font-family:SimSun;color:#000000;direction:ltr;letter-spacing:0px;line-height:120%;opacity:1&quot;&gt;udpos&lt;br/&gt;&lt;/font&gt;&lt;/div&gt;" tags="流程图" id="37">
          <mxCell style="verticalAlign=middle;align=center;overflow=width;vsdxID=283;fillColor=#dae8fc;shape=stencil(nZBLDoAgDERP0z3SIyjew0SURgSD+Lu9kMZoXLhwN9O+tukAlrNpJg1SzDH4QW/URgNYgZTkjA4UkwJUgGXng+6DX1zLfmoymdXo17xh5zmRJ6Q42BWCfc2oJfdAr+Yv+AP9Cb7OJ3H/2JG1HNGz/84klThPVCc=);strokeColor=#6c8ebf;spacingTop=-1;spacingBottom=-1;spacingLeft=-1;spacingRight=-1;points=[[1,0.5,0],[0.5,0.5,0],[0.5,0,0]];labelBackgroundColor=none;rounded=0;html=1;whiteSpace=wrap;" parent="1" vertex="1">
            <mxGeometry x="313" y="583" width="59" height="22" as="geometry" />
          </mxCell>
        </UserObject>
        <UserObject label="&lt;div style=&quot;font-size: 1px&quot;&gt;&lt;font style=&quot;font-size:14.11px;font-family:SimSun;color:#000000;direction:ltr;letter-spacing:0px;line-height:120%;opacity:1&quot;&gt;baseline&lt;br/&gt;&lt;/font&gt;&lt;/div&gt;" tags="流程图" id="38">
          <mxCell style="verticalAlign=middle;align=center;overflow=width;vsdxID=284;fillColor=#f5f5f5;shape=stencil(nZBLDoAgDERP0z3SIyjew0SURgSD+Lu9kMZoXLhwN9O+tukAlrNpJg1SzDH4QW/URgNYgZTkjA4UkwJUgGXng+6DX1zLfmoymdXo17xh5zmRJ6Q42BWCfc2oJfdAr+Yv+AP9Cb7OJ3H/2JG1HNGz/84klThPVCc=);strokeColor=#666666;spacingTop=-1;spacingBottom=-1;spacingLeft=-1;spacingRight=-1;points=[[1,0.5,0],[0.5,0.5,0],[0.5,0,0]];labelBackgroundColor=none;rounded=0;html=1;whiteSpace=wrap;fontColor=#333333;" parent="1" vertex="1">
            <mxGeometry x="372" y="583" width="68" height="22" as="geometry" />
          </mxCell>
        </UserObject>
        <UserObject label="&lt;div style=&quot;font-size: 1px&quot;&gt;&lt;font style=&quot;font-size:14.11px;font-family:SimSun;color:#000000;direction:ltr;letter-spacing:0px;line-height:120%;opacity:1&quot;&gt;udion&lt;br/&gt;&lt;/font&gt;&lt;/div&gt;" tags="流程图" id="39">
          <mxCell style="verticalAlign=middle;align=center;overflow=width;vsdxID=285;fillColor=#f5f5f5;shape=stencil(nZBLDoAgDERP0z3SIyjew0SURgSD+Lu9kMZoXLhwN9O+tukAlrNpJg1SzDH4QW/URgNYgZTkjA4UkwJUgGXng+6DX1zLfmoymdXo17xh5zmRJ6Q42BWCfc2oJfdAr+Yv+AP9Cb7OJ3H/2JG1HNGz/84klThPVCc=);strokeColor=#666666;spacingTop=-1;spacingBottom=-1;spacingLeft=-1;spacingRight=-1;points=[[1,0.5,0],[0.5,0.5,0],[0.5,0,0]];labelBackgroundColor=none;rounded=0;html=1;whiteSpace=wrap;fontColor=#333333;" parent="1" vertex="1">
            <mxGeometry x="436" y="583" width="55" height="22" as="geometry" />
          </mxCell>
        </UserObject>
        <UserObject label="&lt;div style=&quot;font-size: 1px&quot;&gt;&lt;font style=&quot;font-size:14.11px;font-family:SimSun;color:#000000;direction:ltr;letter-spacing:0px;line-height:120%;opacity:1&quot;&gt;udtrop&lt;br/&gt;&lt;/font&gt;&lt;/div&gt;" tags="流程图" id="40">
          <mxCell style="verticalAlign=middle;align=center;overflow=width;vsdxID=286;fillColor=#f5f5f5;shape=stencil(nZBLDoAgDERP0z3SIyjew0SURgSD+Lu9kMZoXLhwN9O+tukAlrNpJg1SzDH4QW/URgNYgZTkjA4UkwJUgGXng+6DX1zLfmoymdXo17xh5zmRJ6Q42BWCfc2oJfdAr+Yv+AP9Cb7OJ3H/2JG1HNGz/84klThPVCc=);strokeColor=#666666;spacingTop=-1;spacingBottom=-1;spacingLeft=-1;spacingRight=-1;points=[[1,0.5,0],[0.5,0.5,0],[0.5,0,0]];labelBackgroundColor=none;rounded=0;html=1;whiteSpace=wrap;fontColor=#333333;" parent="1" vertex="1">
            <mxGeometry x="488" y="583" width="59" height="22" as="geometry" />
          </mxCell>
        </UserObject>
        <UserObject label="&lt;div style=&quot;font-size: 1px&quot;&gt;&lt;font style=&quot;font-size:14.11px;font-family:SimSun;color:#000000;direction:ltr;letter-spacing:0px;line-height:120%;opacity:1&quot;&gt;udrcvbias&lt;br/&gt;&lt;/font&gt;&lt;/div&gt;" tags="流程图" id="41">
          <mxCell style="verticalAlign=middle;align=center;overflow=width;vsdxID=287;fillColor=#f5f5f5;shape=stencil(nZBLDoAgDERP0z3SIyjew0SURgSD+Lu9kMZoXLhwN9O+tukAlrNpJg1SzDH4QW/URgNYgZTkjA4UkwJUgGXng+6DX1zLfmoymdXo17xh5zmRJ6Q42BWCfc2oJfdAr+Yv+AP9Cb7OJ3H/2JG1HNGz/84klThPVCc=);strokeColor=#666666;spacingTop=-1;spacingBottom=-1;spacingLeft=-1;spacingRight=-1;points=[[1,0.5,0],[0.5,0.5,0],[0.5,0,0]];labelBackgroundColor=none;rounded=0;html=1;whiteSpace=wrap;fontColor=#333333;" parent="1" vertex="1">
            <mxGeometry x="540" y="583" width="74" height="22" as="geometry" />
          </mxCell>
        </UserObject>
        <UserObject label="&lt;div style=&quot;font-size: 1px&quot;&gt;&lt;font style=&quot;font-size:14.11px;font-family:SimSun;color:#000000;direction:ltr;letter-spacing:0px;line-height:120%;opacity:1&quot;&gt;udbias&lt;br/&gt;&lt;/font&gt;&lt;/div&gt;" tags="流程图" id="42">
          <mxCell style="verticalAlign=middle;align=center;overflow=width;vsdxID=288;fillColor=#dae8fc;shape=stencil(nZBLDoAgDERP0z3SIyjew0SURgSD+Lu9kMZoXLhwN9O+tukAlrNpJg1SzDH4QW/URgNYgZTkjA4UkwJUgGXng+6DX1zLfmoymdXo17xh5zmRJ6Q42BWCfc2oJfdAr+Yv+AP9Cb7OJ3H/2JG1HNGz/84klThPVCc=);strokeColor=#6c8ebf;spacingTop=-1;spacingBottom=-1;spacingLeft=-1;spacingRight=-1;points=[[1,0.5,0],[0.5,0.5,0],[0.5,0,0]];labelBackgroundColor=none;rounded=0;html=1;whiteSpace=wrap;" parent="1" vertex="1">
            <mxGeometry x="313" y="644" width="59" height="22" as="geometry" />
          </mxCell>
        </UserObject>
        <UserObject label="&lt;div style=&quot;font-size: 1px&quot;&gt;&lt;font style=&quot;font-size:14.11px;font-family:SimSun;color:#000000;direction:ltr;letter-spacing:0px;line-height:120%;opacity:1&quot;&gt;detslp_ll&lt;br/&gt;&lt;/font&gt;&lt;/div&gt;" tags="流程图" id="43">
          <mxCell style="verticalAlign=middle;align=center;overflow=width;vsdxID=290;fillColor=#f5f5f5;shape=stencil(nZBLDoAgDERP0z3SIyjew0SURgSD+Lu9kMZoXLhwN9O+tukAlrNpJg1SzDH4QW/URgNYgZTkjA4UkwJUgGXng+6DX1zLfmoymdXo17xh5zmRJ6Q42BWCfc2oJfdAr+Yv+AP9Cb7OJ3H/2JG1HNGz/84klThPVCc=);strokeColor=#666666;spacingTop=-1;spacingBottom=-1;spacingLeft=-1;spacingRight=-1;points=[[1,0.5,0],[0.5,0.5,0],[0.5,0,0]];labelBackgroundColor=none;rounded=0;html=1;whiteSpace=wrap;fontColor=#333333;" parent="1" vertex="1">
            <mxGeometry x="409" y="616" width="78" height="22" as="geometry" />
          </mxCell>
        </UserObject>
        <UserObject label="&lt;div style=&quot;font-size: 1px&quot;&gt;&lt;font style=&quot;font-size:14.11px;font-family:SimSun;color:#000000;direction:ltr;letter-spacing:0px;line-height:120%;opacity:1&quot;&gt;detslp_gf&lt;br/&gt;&lt;/font&gt;&lt;/div&gt;" tags="流程图" id="44">
          <mxCell style="verticalAlign=middle;align=center;overflow=width;vsdxID=291;fillColor=#f5f5f5;shape=stencil(nZBLDoAgDERP0z3SIyjew0SURgSD+Lu9kMZoXLhwN9O+tukAlrNpJg1SzDH4QW/URgNYgZTkjA4UkwJUgGXng+6DX1zLfmoymdXo17xh5zmRJ6Q42BWCfc2oJfdAr+Yv+AP9Cb7OJ3H/2JG1HNGz/84klThPVCc=);strokeColor=#666666;spacingTop=-1;spacingBottom=-1;spacingLeft=-1;spacingRight=-1;points=[[1,0.5,0],[0.5,0.5,0],[0.5,0,0]];labelBackgroundColor=none;rounded=0;html=1;whiteSpace=wrap;fontColor=#333333;" parent="1" vertex="1">
            <mxGeometry x="409" y="640" width="78" height="22" as="geometry" />
          </mxCell>
        </UserObject>
        <UserObject label="&lt;div style=&quot;font-size: 1px&quot;&gt;&lt;font style=&quot;font-size:14.11px;font-family:SimSun;color:#000000;direction:ltr;letter-spacing:0px;line-height:120%;opacity:1&quot;&gt;detslp_dop&lt;br/&gt;&lt;/font&gt;&lt;/div&gt;" tags="流程图" id="45">
          <mxCell style="verticalAlign=middle;align=center;overflow=width;vsdxID=292;fillColor=#f5f5f5;shape=stencil(nZBLDoAgDERP0z3SIyjew0SURgSD+Lu9kMZoXLhwN9O+tukAlrNpJg1SzDH4QW/URgNYgZTkjA4UkwJUgGXng+6DX1zLfmoymdXo17xh5zmRJ6Q42BWCfc2oJfdAr+Yv+AP9Cb7OJ3H/2JG1HNGz/84klThPVCc=);strokeColor=#666666;spacingTop=-1;spacingBottom=-1;spacingLeft=-1;spacingRight=-1;points=[[1,0.5,0],[0.5,0.5,0],[0.5,0,0]];labelBackgroundColor=none;rounded=0;html=1;whiteSpace=wrap;fontColor=#333333;" parent="1" vertex="1">
            <mxGeometry x="409" y="665" width="78" height="22" as="geometry" />
          </mxCell>
        </UserObject>
        <UserObject label="&lt;div style=&quot;font-size: 1px&quot;&gt;&lt;font style=&quot;font-size:14.11px;font-family:SimSun;color:#000000;direction:ltr;letter-spacing:0px;line-height:120%;opacity:1&quot;&gt;sdops&lt;br/&gt;&lt;/font&gt;&lt;/div&gt;" tags="流程图" id="46">
          <mxCell style="verticalAlign=middle;align=center;overflow=width;vsdxID=293;fillColor=#f5f5f5;shape=stencil(nZBLDoAgDERP0z3SIyjew0SURgSD+Lu9kMZoXLhwN9O+tukAlrNpJg1SzDH4QW/URgNYgZTkjA4UkwJUgGXng+6DX1zLfmoymdXo17xh5zmRJ6Q42BWCfc2oJfdAr+Yv+AP9Cb7OJ3H/2JG1HNGz/84klThPVCc=);strokeColor=#666666;spacingTop=-1;spacingBottom=-1;spacingLeft=-1;spacingRight=-1;points=[[1,0.5,0],[0.5,0.5,0],[0.5,0,0]];labelBackgroundColor=none;rounded=0;html=1;whiteSpace=wrap;fontColor=#333333;" parent="1" vertex="1">
            <mxGeometry x="409" y="690" width="78" height="22" as="geometry" />
          </mxCell>
        </UserObject>
        <UserObject label="&lt;div style=&quot;font-size: 1px&quot;&gt;&lt;font style=&quot;font-size:14.11px;font-family:SimSun;color:#000000;direction:ltr;letter-spacing:0px;line-height:120%;opacity:1&quot;&gt;gfobs&lt;br/&gt;&lt;/font&gt;&lt;/div&gt;" tags="流程图" id="47">
          <mxCell style="verticalAlign=middle;align=center;overflow=width;vsdxID=294;fillColor=#f5f5f5;shape=stencil(nZBLDoAgDERP0z3SIyjew0SURgSD+Lu9kMZoXLhwN9O+tukAlrNpJg1SzDH4QW/URgNYgZTkjA4UkwJUgGXng+6DX1zLfmoymdXo17xh5zmRJ6Q42BWCfc2oJfdAr+Yv+AP9Cb7OJ3H/2JG1HNGz/84klThPVCc=);strokeColor=#666666;spacingTop=-1;spacingBottom=-1;spacingLeft=-1;spacingRight=-1;points=[[1,0.5,0],[0.5,0.5,0],[0.5,0,0]];labelBackgroundColor=none;rounded=0;html=1;whiteSpace=wrap;fontColor=#333333;" parent="1" vertex="1">
            <mxGeometry x="517" y="640" width="59" height="22" as="geometry" />
          </mxCell>
        </UserObject>
        <UserObject label="&lt;div style=&quot;font-size: 1px&quot;&gt;&lt;font style=&quot;font-size:14.11px;font-family:SimSun;color:#000000;direction:ltr;letter-spacing:0px;line-height:120%;opacity:1&quot;&gt;getbitu&lt;br/&gt;&lt;/font&gt;&lt;/div&gt;" tags="流程图" id="48">
          <mxCell style="verticalAlign=middle;align=center;overflow=width;vsdxID=296;fillColor=#f5f5f5;shape=stencil(nZBLDoAgDERP0z3SIyjew0SURgSD+Lu9kMZoXLhwN9O+tukAlrNpJg1SzDH4QW/URgNYgZTkjA4UkwJUgGXng+6DX1zLfmoymdXo17xh5zmRJ6Q42BWCfc2oJfdAr+Yv+AP9Cb7OJ3H/2JG1HNGz/84klThPVCc=);strokeColor=#666666;spacingTop=-1;spacingBottom=-1;spacingLeft=-1;spacingRight=-1;points=[[1,0.5,0],[0.5,0.5,0],[0.5,0,0]];labelBackgroundColor=none;rounded=0;html=1;whiteSpace=wrap;fontColor=#333333;" parent="1" vertex="1">
            <mxGeometry x="517" y="616" width="59" height="22" as="geometry" />
          </mxCell>
        </UserObject>
        <UserObject label="&lt;div style=&quot;font-size: 1px&quot;&gt;&lt;font style=&quot;font-size:14.11px;font-family:SimSun;color:#000000;direction:ltr;letter-spacing:0px;line-height:120%;opacity:1&quot;&gt;setbitu&lt;br/&gt;&lt;/font&gt;&lt;/div&gt;" tags="流程图" id="49">
          <mxCell style="verticalAlign=middle;align=center;overflow=width;vsdxID=297;fillColor=#f5f5f5;shape=stencil(nZBLDoAgDERP0z3SIyjew0SURgSD+Lu9kMZoXLhwN9O+tukAlrNpJg1SzDH4QW/URgNYgZTkjA4UkwJUgGXng+6DX1zLfmoymdXo17xh5zmRJ6Q42BWCfc2oJfdAr+Yv+AP9Cb7OJ3H/2JG1HNGz/84klThPVCc=);strokeColor=#666666;spacingTop=-1;spacingBottom=-1;spacingLeft=-1;spacingRight=-1;points=[[1,0.5,0],[0.5,0.5,0],[0.5,0,0]];labelBackgroundColor=none;rounded=0;html=1;whiteSpace=wrap;fontColor=#333333;" parent="1" vertex="1">
            <mxGeometry x="576" y="616" width="55" height="22" as="geometry" />
          </mxCell>
        </UserObject>
        <UserObject label="&lt;div style=&quot;font-size: 1px&quot;&gt;&lt;font style=&quot;font-size:14.11px;font-family:SimSun;color:#000000;direction:ltr;letter-spacing:0px;line-height:120%;opacity:1&quot;&gt;ddres&lt;br/&gt;&lt;/font&gt;&lt;/div&gt;" tags="流程图" id="50">
          <mxCell style="verticalAlign=middle;align=center;overflow=width;vsdxID=299;fillColor=#dae8fc;shape=stencil(nZBLDoAgDERP0z3SIyjew0SURgSD+Lu9kMZoXLhwN9O+tukAlrNpJg1SzDH4QW/URgNYgZTkjA4UkwJUgGXng+6DX1zLfmoymdXo17xh5zmRJ6Q42BWCfc2oJfdAr+Yv+AP9Cb7OJ3H/2JG1HNGz/84klThPVCc=);strokeColor=#6c8ebf;spacingTop=-1;spacingBottom=-1;spacingLeft=-1;spacingRight=-1;points=[[1,0.5,0],[0.5,0.5,0],[0.5,0,0]];labelBackgroundColor=none;rounded=0;html=1;whiteSpace=wrap;" parent="1" vertex="1">
            <mxGeometry x="212" y="776" width="68" height="22" as="geometry" />
          </mxCell>
        </UserObject>
        <UserObject label="&lt;div style=&quot;font-size: 1px&quot;&gt;&lt;font style=&quot;font-size:14.11px;font-family:SimSun;color:#000000;direction:ltr;letter-spacing:0px;line-height:120%;opacity:1&quot;&gt;baseline&lt;br/&gt;&lt;/font&gt;&lt;/div&gt;" tags="流程图" id="51">
          <mxCell style="verticalAlign=middle;align=center;overflow=width;vsdxID=308;fillColor=#f5f5f5;shape=stencil(nZBLDoAgDERP0z3SIyjew0SURgSD+Lu9kMZoXLhwN9O+tukAlrNpJg1SzDH4QW/URgNYgZTkjA4UkwJUgGXng+6DX1zLfmoymdXo17xh5zmRJ6Q42BWCfc2oJfdAr+Yv+AP9Cb7OJ3H/2JG1HNGz/84klThPVCc=);strokeColor=#666666;spacingTop=-1;spacingBottom=-1;spacingLeft=-1;spacingRight=-1;points=[[1,0.5,0],[0.5,0.5,0],[0.5,0,0]];labelBackgroundColor=none;rounded=0;html=1;whiteSpace=wrap;fontColor=#333333;" parent="1" vertex="1">
            <mxGeometry x="310" y="688" width="70" height="22" as="geometry" />
          </mxCell>
        </UserObject>
        <UserObject label="&lt;div style=&quot;font-size: 1px&quot;&gt;&lt;font style=&quot;font-size:14.11px;font-family:SimSun;color:#000000;direction:ltr;letter-spacing:0px;line-height:120%;opacity:1&quot;&gt;ionmapf&lt;br/&gt;&lt;/font&gt;&lt;/div&gt;" tags="流程图" id="52">
          <mxCell style="verticalAlign=middle;align=center;overflow=width;vsdxID=312;fillColor=#f5f5f5;shape=stencil(nZBLDoAgDERP0z3SIyjew0SURgSD+Lu9kMZoXLhwN9O+tukAlrNpJg1SzDH4QW/URgNYgZTkjA4UkwJUgGXng+6DX1zLfmoymdXo17xh5zmRJ6Q42BWCfc2oJfdAr+Yv+AP9Cb7OJ3H/2JG1HNGz/84klThPVCc=);strokeColor=#666666;spacingTop=-1;spacingBottom=-1;spacingLeft=-1;spacingRight=-1;points=[[1,0.5,0],[0.5,0.5,0],[0.5,0,0]];labelBackgroundColor=none;rounded=0;html=1;whiteSpace=wrap;fontColor=#333333;" parent="1" vertex="1">
            <mxGeometry x="310" y="717" width="70" height="22" as="geometry" />
          </mxCell>
        </UserObject>
        <UserObject label="&lt;div style=&quot;font-size: 1px&quot;&gt;&lt;font style=&quot;font-size:14.11px;font-family:SimSun;color:#000000;direction:ltr;letter-spacing:0px;line-height:120%;opacity:1&quot;&gt;prectrop&lt;br/&gt;&lt;/font&gt;&lt;/div&gt;" tags="流程图" id="53">
          <mxCell style="verticalAlign=middle;align=center;overflow=width;vsdxID=313;fillColor=#f5f5f5;shape=stencil(nZBLDoAgDERP0z3SIyjew0SURgSD+Lu9kMZoXLhwN9O+tukAlrNpJg1SzDH4QW/URgNYgZTkjA4UkwJUgGXng+6DX1zLfmoymdXo17xh5zmRJ6Q42BWCfc2oJfdAr+Yv+AP9Cb7OJ3H/2JG1HNGz/84klThPVCc=);strokeColor=#666666;spacingTop=-1;spacingBottom=-1;spacingLeft=-1;spacingRight=-1;points=[[1,0.5,0],[0.5,0.5,0],[0.5,0,0]];labelBackgroundColor=none;rounded=0;html=1;whiteSpace=wrap;fontColor=#333333;" parent="1" vertex="1">
            <mxGeometry x="310" y="746" width="70" height="22" as="geometry" />
          </mxCell>
        </UserObject>
        <UserObject label="&lt;div style=&quot;font-size: 1px&quot;&gt;&lt;font style=&quot;font-size:14.11px;font-family:SimSun;color:#000000;direction:ltr;letter-spacing:0px;line-height:120%;opacity:1&quot;&gt;test_sys&lt;br/&gt;&lt;/font&gt;&lt;/div&gt;" tags="流程图" id="54">
          <mxCell style="verticalAlign=middle;align=center;overflow=width;vsdxID=314;fillColor=#f5f5f5;shape=stencil(nZBLDoAgDERP0z3SIyjew0SURgSD+Lu9kMZoXLhwN9O+tukAlrNpJg1SzDH4QW/URgNYgZTkjA4UkwJUgGXng+6DX1zLfmoymdXo17xh5zmRJ6Q42BWCfc2oJfdAr+Yv+AP9Cb7OJ3H/2JG1HNGz/84klThPVCc=);strokeColor=#666666;spacingTop=-1;spacingBottom=-1;spacingLeft=-1;spacingRight=-1;points=[[1,0.5,0],[0.5,0.5,0],[0.5,0,0]];labelBackgroundColor=none;rounded=0;html=1;whiteSpace=wrap;fontColor=#333333;" parent="1" vertex="1">
            <mxGeometry x="310" y="776" width="68" height="22" as="geometry" />
          </mxCell>
        </UserObject>
        <UserObject label="&lt;div style=&quot;font-size: 1px&quot;&gt;&lt;font style=&quot;font-size:14.11px;font-family:SimSun;color:#000000;direction:ltr;letter-spacing:0px;line-height:120%;opacity:1&quot;&gt;validobs&lt;br/&gt;&lt;/font&gt;&lt;/div&gt;" tags="流程图" id="55">
          <mxCell style="verticalAlign=middle;align=center;overflow=width;vsdxID=315;fillColor=#f5f5f5;shape=stencil(nZBLDoAgDERP0z3SIyjew0SURgSD+Lu9kMZoXLhwN9O+tukAlrNpJg1SzDH4QW/URgNYgZTkjA4UkwJUgGXng+6DX1zLfmoymdXo17xh5zmRJ6Q42BWCfc2oJfdAr+Yv+AP9Cb7OJ3H/2JG1HNGz/84klThPVCc=);strokeColor=#666666;spacingTop=-1;spacingBottom=-1;spacingLeft=-1;spacingRight=-1;points=[[1,0.5,0],[0.5,0.5,0],[0.5,0,0]];labelBackgroundColor=none;rounded=0;html=1;whiteSpace=wrap;fontColor=#333333;" parent="1" vertex="1">
            <mxGeometry x="310" y="805" width="68" height="22" as="geometry" />
          </mxCell>
        </UserObject>
        <UserObject label="&lt;div style=&quot;font-size: 1px&quot;&gt;&lt;font style=&quot;font-size:14.11px;font-family:SimSun;color:#000000;direction:ltr;letter-spacing:0px;line-height:120%;opacity:1&quot;&gt;constbl&lt;br/&gt;&lt;/font&gt;&lt;/div&gt;" tags="流程图" id="56">
          <mxCell style="verticalAlign=middle;align=center;overflow=width;vsdxID=317;fillColor=#f5f5f5;shape=stencil(nZBLDoAgDERP0z3SIyjew0SURgSD+Lu9kMZoXLhwN9O+tukAlrNpJg1SzDH4QW/URgNYgZTkjA4UkwJUgGXng+6DX1zLfmoymdXo17xh5zmRJ6Q42BWCfc2oJfdAr+Yv+AP9Cb7OJ3H/2JG1HNGz/84klThPVCc=);strokeColor=#666666;spacingTop=-1;spacingBottom=-1;spacingLeft=-1;spacingRight=-1;points=[[1,0.5,0],[0.5,0.5,0],[0.5,0,0]];labelBackgroundColor=none;rounded=0;html=1;whiteSpace=wrap;fontColor=#333333;" parent="1" vertex="1">
            <mxGeometry x="310" y="834" width="68" height="22" as="geometry" />
          </mxCell>
        </UserObject>
        <UserObject label="&lt;div style=&quot;font-size: 1px&quot;&gt;&lt;font style=&quot;font-size:14.11px;font-family:SimSun;color:#000000;direction:ltr;letter-spacing:0px;line-height:120%;opacity:1&quot;&gt;ddcov&lt;br/&gt;&lt;/font&gt;&lt;/div&gt;" tags="流程图" id="57">
          <mxCell style="verticalAlign=middle;align=center;overflow=width;vsdxID=318;fillColor=#f5f5f5;shape=stencil(nZBLDoAgDERP0z3SIyjew0SURgSD+Lu9kMZoXLhwN9O+tukAlrNpJg1SzDH4QW/URgNYgZTkjA4UkwJUgGXng+6DX1zLfmoymdXo17xh5zmRJ6Q42BWCfc2oJfdAr+Yv+AP9Cb7OJ3H/2JG1HNGz/84klThPVCc=);strokeColor=#666666;spacingTop=-1;spacingBottom=-1;spacingLeft=-1;spacingRight=-1;points=[[1,0.5,0],[0.5,0.5,0],[0.5,0,0]];labelBackgroundColor=none;rounded=0;html=1;whiteSpace=wrap;fontColor=#333333;" parent="1" vertex="1">
            <mxGeometry x="310" y="864" width="68" height="22" as="geometry" />
          </mxCell>
        </UserObject>
        <UserObject label="&lt;div style=&quot;font-size: 1px&quot;&gt;&lt;font style=&quot;font-size:14.11px;font-family:SimSun;color:#000000;direction:ltr;letter-spacing:0px;line-height:120%;opacity:1&quot;&gt;tropmapf&lt;br/&gt;&lt;/font&gt;&lt;/div&gt;" tags="流程图" id="58">
          <mxCell style="verticalAlign=middle;align=center;overflow=width;vsdxID=319;fillColor=#f5f5f5;shape=stencil(nZBLDoAgDERP0z3SIyjew0SURgSD+Lu9kMZoXLhwN9O+tukAlrNpJg1SzDH4QW/URgNYgZTkjA4UkwJUgGXng+6DX1zLfmoymdXo17xh5zmRJ6Q42BWCfc2oJfdAr+Yv+AP9Cb7OJ3H/2JG1HNGz/84klThPVCc=);strokeColor=#666666;spacingTop=-1;spacingBottom=-1;spacingLeft=-1;spacingRight=-1;points=[[1,0.5,0],[0.5,0.5,0],[0.5,0,0]];labelBackgroundColor=none;rounded=0;html=1;whiteSpace=wrap;fontColor=#333333;" parent="1" vertex="1">
            <mxGeometry x="407" y="746" width="70" height="22" as="geometry" />
          </mxCell>
        </UserObject>
        <UserObject label="&lt;div style=&quot;font-size: 1px&quot;&gt;&lt;font style=&quot;font-size:14.11px;font-family:SimSun;color:#000000;direction:ltr;letter-spacing:0px;line-height:120%;opacity:1&quot;&gt;geoidh&lt;br/&gt;&lt;/font&gt;&lt;/div&gt;" tags="流程图" id="59">
          <mxCell style="verticalAlign=middle;align=center;overflow=width;vsdxID=320;fillColor=#f5f5f5;shape=stencil(nZBLDoAgDERP0z3SIyjew0SURgSD+Lu9kMZoXLhwN9O+tukAlrNpJg1SzDH4QW/URgNYgZTkjA4UkwJUgGXng+6DX1zLfmoymdXo17xh5zmRJ6Q42BWCfc2oJfdAr+Yv+AP9Cb7OJ3H/2JG1HNGz/84klThPVCc=);strokeColor=#666666;spacingTop=-1;spacingBottom=-1;spacingLeft=-1;spacingRight=-1;points=[[1,0.5,0],[0.5,0.5,0],[0.5,0,0]];labelBackgroundColor=none;rounded=0;html=1;whiteSpace=wrap;fontColor=#333333;" parent="1" vertex="1">
            <mxGeometry x="498" y="719" width="59" height="22" as="geometry" />
          </mxCell>
        </UserObject>
        <UserObject label="&lt;div style=&quot;font-size: 1px&quot;&gt;&lt;font style=&quot;font-size:14.11px;font-family:SimSun;color:#000000;direction:ltr;letter-spacing:0px;line-height:120%;opacity:1&quot;&gt;gmf_&lt;br/&gt;&lt;/font&gt;&lt;/div&gt;" tags="流程图" id="60">
          <mxCell style="verticalAlign=middle;align=center;overflow=width;vsdxID=321;fillColor=#f5f5f5;shape=stencil(nZBLDoAgDERP0z3SIyjew0SURgSD+Lu9kMZoXLhwN9O+tukAlrNpJg1SzDH4QW/URgNYgZTkjA4UkwJUgGXng+6DX1zLfmoymdXo17xh5zmRJ6Q42BWCfc2oJfdAr+Yv+AP9Cb7OJ3H/2JG1HNGz/84klThPVCc=);strokeColor=#666666;spacingTop=-1;spacingBottom=-1;spacingLeft=-1;spacingRight=-1;points=[[1,0.5,0],[0.5,0.5,0],[0.5,0,0]];labelBackgroundColor=none;rounded=0;html=1;whiteSpace=wrap;fontColor=#333333;" parent="1" vertex="1">
            <mxGeometry x="498" y="746" width="59" height="22" as="geometry" />
          </mxCell>
        </UserObject>
        <UserObject label="&lt;div style=&quot;font-size: 1px&quot;&gt;&lt;font style=&quot;font-size:14.11px;font-family:SimSun;color:#000000;direction:ltr;letter-spacing:0px;line-height:120%;opacity:1&quot;&gt;nmf&lt;br/&gt;&lt;/font&gt;&lt;/div&gt;" tags="流程图" id="61">
          <mxCell style="verticalAlign=middle;align=center;overflow=width;vsdxID=322;fillColor=#f5f5f5;shape=stencil(nZBLDoAgDERP0z3SIyjew0SURgSD+Lu9kMZoXLhwN9O+tukAlrNpJg1SzDH4QW/URgNYgZTkjA4UkwJUgGXng+6DX1zLfmoymdXo17xh5zmRJ6Q42BWCfc2oJfdAr+Yv+AP9Cb7OJ3H/2JG1HNGz/84klThPVCc=);strokeColor=#666666;spacingTop=-1;spacingBottom=-1;spacingLeft=-1;spacingRight=-1;points=[[1,0.5,0],[0.5,0.5,0],[0.5,0,0]];labelBackgroundColor=none;rounded=0;html=1;whiteSpace=wrap;fontColor=#333333;" parent="1" vertex="1">
            <mxGeometry x="498" y="773" width="59" height="22" as="geometry" />
          </mxCell>
        </UserObject>
        <UserObject label="&lt;div style=&quot;font-size: 1px&quot;&gt;&lt;font style=&quot;font-size:14.11px;font-family:SimSun;color:#000000;direction:ltr;letter-spacing:0px;line-height:120%;opacity:1&quot;&gt;valpos&lt;br/&gt;&lt;/font&gt;&lt;/div&gt;" tags="流程图" id="62">
          <mxCell style="verticalAlign=middle;align=center;overflow=width;vsdxID=334;fillColor=#f5f5f5;shape=stencil(nZBLDoAgDERP0z3SIyjew0SURgSD+Lu9kMZoXLhwN9O+tukAlrNpJg1SzDH4QW/URgNYgZTkjA4UkwJUgGXng+6DX1zLfmoymdXo17xh5zmRJ6Q42BWCfc2oJfdAr+Yv+AP9Cb7OJ3H/2JG1HNGz/84klThPVCc=);strokeColor=#666666;spacingTop=-1;spacingBottom=-1;spacingLeft=-1;spacingRight=-1;points=[[1,0.5,0],[0.5,0.5,0],[0.5,0,0]];labelBackgroundColor=none;rounded=0;html=1;whiteSpace=wrap;fontColor=#333333;" parent="1" vertex="1">
            <mxGeometry x="211" y="888" width="69" height="22" as="geometry" />
          </mxCell>
        </UserObject>
        <UserObject label="&lt;div style=&quot;font-size: 1px&quot;&gt;&lt;font style=&quot;font-size:14.11px;font-family:SimSun;color:#000000;direction:ltr;letter-spacing:0px;line-height:120%;opacity:1&quot;&gt;resamb_LAMBDA&lt;br/&gt;&lt;/font&gt;&lt;/div&gt;" tags="流程图" id="63">
          <mxCell style="verticalAlign=middle;align=center;overflow=width;vsdxID=335;fillColor=#dae8fc;shape=stencil(nZBLDoAgDERP0z3SIyjew0SURgSD+Lu9kMZoXLhwN9O+tukAlrNpJg1SzDH4QW/URgNYgZTkjA4UkwJUgGXng+6DX1zLfmoymdXo17xh5zmRJ6Q42BWCfc2oJfdAr+Yv+AP9Cb7OJ3H/2JG1HNGz/84klThPVCc=);strokeColor=#6c8ebf;spacingTop=-1;spacingBottom=-1;spacingLeft=-1;spacingRight=-1;points=[[1,0.5,0],[0.5,0.5,0],[0.5,0,0]];labelBackgroundColor=none;rounded=0;html=1;whiteSpace=wrap;" parent="1" vertex="1">
            <mxGeometry x="211" y="930" width="114" height="22" as="geometry" />
          </mxCell>
        </UserObject>
        <UserObject label="&lt;div style=&quot;font-size: 1px&quot;&gt;&lt;font style=&quot;font-size:14.11px;font-family:SimSun;color:#000000;direction:ltr;letter-spacing:0px;line-height:120%;opacity:1&quot;&gt;holdamb&lt;br/&gt;&lt;/font&gt;&lt;/div&gt;" tags="流程图" id="64">
          <mxCell style="verticalAlign=middle;align=center;overflow=width;vsdxID=336;fillColor=#dae8fc;shape=stencil(nZBLDoAgDERP0z3SIyjew0SURgSD+Lu9kMZoXLhwN9O+tukAlrNpJg1SzDH4QW/URgNYgZTkjA4UkwJUgGXng+6DX1zLfmoymdXo17xh5zmRJ6Q42BWCfc2oJfdAr+Yv+AP9Cb7OJ3H/2JG1HNGz/84klThPVCc=);strokeColor=#6c8ebf;spacingTop=-1;spacingBottom=-1;spacingLeft=-1;spacingRight=-1;points=[[1,0.5,0],[0.5,0.5,0],[0.5,0,0]];labelBackgroundColor=none;rounded=0;html=1;whiteSpace=wrap;" parent="1" vertex="1">
            <mxGeometry x="211" y="999" width="69" height="22" as="geometry" />
          </mxCell>
        </UserObject>
        <UserObject label="&lt;div style=&quot;font-size: 1px&quot;&gt;&lt;font style=&quot;font-size:14.11px;font-family:SimSun;color:#000000;direction:ltr;letter-spacing:0px;line-height:120%;opacity:1&quot;&gt;ddidx&lt;br/&gt;&lt;/font&gt;&lt;/div&gt;" tags="流程图" id="65">
          <mxCell style="verticalAlign=middle;align=center;overflow=width;vsdxID=337;fillColor=#f5f5f5;shape=stencil(nZBLDoAgDERP0z3SIyjew0SURgSD+Lu9kMZoXLhwN9O+tukAlrNpJg1SzDH4QW/URgNYgZTkjA4UkwJUgGXng+6DX1zLfmoymdXo17xh5zmRJ6Q42BWCfc2oJfdAr+Yv+AP9Cb7OJ3H/2JG1HNGz/84klThPVCc=);strokeColor=#666666;spacingTop=-1;spacingBottom=-1;spacingLeft=-1;spacingRight=-1;points=[[1,0.5,0],[0.5,0.5,0],[0.5,0,0]];labelBackgroundColor=none;rounded=0;html=1;whiteSpace=wrap;fontColor=#333333;" parent="1" vertex="1">
            <mxGeometry x="367" y="901" width="68" height="22" as="geometry" />
          </mxCell>
        </UserObject>
        <UserObject label="&lt;div style=&quot;font-size: 1px&quot;&gt;&lt;font style=&quot;font-size:14.11px;font-family:SimSun;color:#000000;direction:ltr;letter-spacing:0px;line-height:120%;opacity:1&quot;&gt;lambda&lt;br/&gt;&lt;/font&gt;&lt;/div&gt;" tags="流程图" id="66">
          <mxCell style="verticalAlign=middle;align=center;overflow=width;vsdxID=338;fillColor=#dae8fc;shape=stencil(nZBLDoAgDERP0z3SIyjew0SURgSD+Lu9kMZoXLhwN9O+tukAlrNpJg1SzDH4QW/URgNYgZTkjA4UkwJUgGXng+6DX1zLfmoymdXo17xh5zmRJ6Q42BWCfc2oJfdAr+Yv+AP9Cb7OJ3H/2JG1HNGz/84klThPVCc=);strokeColor=#6c8ebf;spacingTop=-1;spacingBottom=-1;spacingLeft=-1;spacingRight=-1;points=[[1,0.5,0],[0.5,0.5,0],[0.5,0,0]];labelBackgroundColor=none;rounded=0;html=1;whiteSpace=wrap;" parent="1" vertex="1">
            <mxGeometry x="367" y="930" width="68" height="22" as="geometry" />
          </mxCell>
        </UserObject>
        <UserObject label="&lt;div style=&quot;font-size: 1px&quot;&gt;&lt;font style=&quot;font-size:14.11px;font-family:SimSun;color:#000000;direction:ltr;letter-spacing:0px;line-height:120%;opacity:1&quot;&gt;restamb&lt;br/&gt;&lt;/font&gt;&lt;/div&gt;" tags="流程图" id="67">
          <mxCell style="verticalAlign=middle;align=center;overflow=width;vsdxID=339;fillColor=#f5f5f5;shape=stencil(nZBLDoAgDERP0z3SIyjew0SURgSD+Lu9kMZoXLhwN9O+tukAlrNpJg1SzDH4QW/URgNYgZTkjA4UkwJUgGXng+6DX1zLfmoymdXo17xh5zmRJ6Q42BWCfc2oJfdAr+Yv+AP9Cb7OJ3H/2JG1HNGz/84klThPVCc=);strokeColor=#666666;spacingTop=-1;spacingBottom=-1;spacingLeft=-1;spacingRight=-1;points=[[1,0.5,0],[0.5,0.5,0],[0.5,0,0]];labelBackgroundColor=none;rounded=0;html=1;whiteSpace=wrap;fontColor=#333333;" parent="1" vertex="1">
            <mxGeometry x="367" y="959" width="68" height="22" as="geometry" />
          </mxCell>
        </UserObject>
        <UserObject label="&lt;div style=&quot;font-size: 1px&quot;&gt;&lt;font style=&quot;font-size:14.11px;font-family:SimSun;color:#000000;direction:ltr;letter-spacing:0px;line-height:120%;opacity:1&quot;&gt;LD&lt;br/&gt;&lt;/font&gt;&lt;/div&gt;" tags="流程图" id="68">
          <mxCell style="verticalAlign=middle;align=center;overflow=width;vsdxID=340;fillColor=#f5f5f5;shape=stencil(nZBLDoAgDERP0z3SIyjew0SURgSD+Lu9kMZoXLhwN9O+tukAlrNpJg1SzDH4QW/URgNYgZTkjA4UkwJUgGXng+6DX1zLfmoymdXo17xh5zmRJ6Q42BWCfc2oJfdAr+Yv+AP9Cb7OJ3H/2JG1HNGz/84klThPVCc=);strokeColor=#666666;spacingTop=-1;spacingBottom=-1;spacingLeft=-1;spacingRight=-1;points=[[1,0.5,0],[0.5,0.5,0],[0.5,0,0]];labelBackgroundColor=none;rounded=0;html=1;whiteSpace=wrap;fontColor=#333333;" parent="1" vertex="1">
            <mxGeometry x="488" y="890" width="70" height="22" as="geometry" />
          </mxCell>
        </UserObject>
        <UserObject label="&lt;div style=&quot;font-size: 1px&quot;&gt;&lt;font style=&quot;font-size:14.11px;font-family:SimSun;color:#000000;direction:ltr;letter-spacing:0px;line-height:120%;opacity:1&quot;&gt;search&lt;br/&gt;&lt;/font&gt;&lt;/div&gt;" tags="流程图" id="69">
          <mxCell style="verticalAlign=middle;align=center;overflow=width;vsdxID=341;fillColor=#f5f5f5;shape=stencil(nZBLDoAgDERP0z3SIyjew0SURgSD+Lu9kMZoXLhwN9O+tukAlrNpJg1SzDH4QW/URgNYgZTkjA4UkwJUgGXng+6DX1zLfmoymdXo17xh5zmRJ6Q42BWCfc2oJfdAr+Yv+AP9Cb7OJ3H/2JG1HNGz/84klThPVCc=);strokeColor=#666666;spacingTop=-1;spacingBottom=-1;spacingLeft=-1;spacingRight=-1;points=[[1,0.5,0],[0.5,0.5,0],[0.5,0,0]];labelBackgroundColor=none;rounded=0;html=1;whiteSpace=wrap;fontColor=#333333;" parent="1" vertex="1">
            <mxGeometry x="488" y="948" width="68" height="22" as="geometry" />
          </mxCell>
        </UserObject>
        <UserObject label="&lt;div style=&quot;font-size: 1px&quot;&gt;&lt;font style=&quot;font-size:14.11px;font-family:SimSun;color:#000000;direction:ltr;letter-spacing:0px;line-height:120%;opacity:1&quot;&gt;reduction&lt;br/&gt;&lt;/font&gt;&lt;/div&gt;" tags="流程图" id="70">
          <mxCell style="verticalAlign=middle;align=center;overflow=width;vsdxID=342;fillColor=#f5f5f5;shape=stencil(nZBLDoAgDERP0z3SIyjew0SURgSD+Lu9kMZoXLhwN9O+tukAlrNpJg1SzDH4QW/URgNYgZTkjA4UkwJUgGXng+6DX1zLfmoymdXo17xh5zmRJ6Q42BWCfc2oJfdAr+Yv+AP9Cb7OJ3H/2JG1HNGz/84klThPVCc=);strokeColor=#666666;spacingTop=-1;spacingBottom=-1;spacingLeft=-1;spacingRight=-1;points=[[1,0.5,0],[0.5,0.5,0],[0.5,0,0]];labelBackgroundColor=none;rounded=0;html=1;whiteSpace=wrap;fontColor=#333333;" parent="1" vertex="1">
            <mxGeometry x="488" y="919" width="70" height="22" as="geometry" />
          </mxCell>
        </UserObject>
        <UserObject label="&lt;div style=&quot;font-size: 1px&quot;&gt;&lt;font style=&quot;font-size:14.11px;font-family:SimSun;color:#000000;direction:ltr;letter-spacing:0px;line-height:120%;opacity:1&quot;&gt;solve&lt;br/&gt;&lt;/font&gt;&lt;/div&gt;" tags="流程图" id="71">
          <mxCell style="verticalAlign=middle;align=center;overflow=width;vsdxID=343;fillColor=#f5f5f5;shape=stencil(nZBLDoAgDERP0z3SIyjew0SURgSD+Lu9kMZoXLhwN9O+tukAlrNpJg1SzDH4QW/URgNYgZTkjA4UkwJUgGXng+6DX1zLfmoymdXo17xh5zmRJ6Q42BWCfc2oJfdAr+Yv+AP9Cb7OJ3H/2JG1HNGz/84klThPVCc=);strokeColor=#666666;spacingTop=-1;spacingBottom=-1;spacingLeft=-1;spacingRight=-1;points=[[1,0.5,0],[0.5,0.5,0],[0.5,0,0]];labelBackgroundColor=none;rounded=0;html=1;whiteSpace=wrap;fontColor=#333333;" parent="1" vertex="1">
            <mxGeometry x="488" y="976" width="68" height="22" as="geometry" />
          </mxCell>
        </UserObject>
        <UserObject label="&lt;div style=&quot;font-size: 1px&quot;&gt;&lt;font style=&quot;font-size:14.11px;font-family:SimSun;color:#000000;direction:ltr;letter-spacing:0px;line-height:120%;opacity:1&quot;&gt;gauss&lt;br/&gt;&lt;/font&gt;&lt;/div&gt;" tags="流程图" id="72">
          <mxCell style="verticalAlign=middle;align=center;overflow=width;vsdxID=344;fillColor=#f5f5f5;shape=stencil(nZBLDoAgDERP0z3SIyjew0SURgSD+Lu9kMZoXLhwN9O+tukAlrNpJg1SzDH4QW/URgNYgZTkjA4UkwJUgGXng+6DX1zLfmoymdXo17xh5zmRJ6Q42BWCfc2oJfdAr+Yv+AP9Cb7OJ3H/2JG1HNGz/84klThPVCc=);strokeColor=#666666;spacingTop=-1;spacingBottom=-1;spacingLeft=-1;spacingRight=-1;points=[[1,0.5,0],[0.5,0.5,0],[0.5,0,0]];labelBackgroundColor=none;rounded=0;html=1;whiteSpace=wrap;fontColor=#333333;" parent="1" vertex="1">
            <mxGeometry x="607" y="908" width="68" height="22" as="geometry" />
          </mxCell>
        </UserObject>
        <UserObject label="&lt;div style=&quot;font-size: 1px&quot;&gt;&lt;font style=&quot;font-size:14.11px;font-family:SimSun;color:#000000;direction:ltr;letter-spacing:0px;line-height:120%;opacity:1&quot;&gt;perm&lt;br/&gt;&lt;/font&gt;&lt;/div&gt;" tags="流程图" id="73">
          <mxCell style="verticalAlign=middle;align=center;overflow=width;vsdxID=345;fillColor=#f5f5f5;shape=stencil(nZBLDoAgDERP0z3SIyjew0SURgSD+Lu9kMZoXLhwN9O+tukAlrNpJg1SzDH4QW/URgNYgZTkjA4UkwJUgGXng+6DX1zLfmoymdXo17xh5zmRJ6Q42BWCfc2oJfdAr+Yv+AP9Cb7OJ3H/2JG1HNGz/84klThPVCc=);strokeColor=#666666;spacingTop=-1;spacingBottom=-1;spacingLeft=-1;spacingRight=-1;points=[[1,0.5,0],[0.5,0.5,0],[0.5,0,0]];labelBackgroundColor=none;rounded=0;html=1;whiteSpace=wrap;fontColor=#333333;" parent="1" vertex="1">
            <mxGeometry x="607" y="939" width="68" height="22" as="geometry" />
          </mxCell>
        </UserObject>
        <mxCell id="75" parent="1" vertex="1">
          <mxGeometry x="160" y="624" as="geometry" />
        </mxCell>
        <UserObject label="" tags="连接线" id="76">
          <mxCell style="vsdxID=375;edgeStyle=none;startArrow=none;endArrow=none;startSize=9;endSize=9;spacingTop=0;spacingBottom=0;spacingLeft=0;spacingRight=0;verticalAlign=middle;html=1;labelBackgroundColor=#ffffff;rounded=0;exitX=0;exitY=0.5;exitDx=0;exitDy=0;exitPerimeter=0;" parent="1" source="4" target="75" edge="1">
            <mxGeometry relative="1" as="geometry">
              <mxPoint as="offset" />
              <Array as="points">
                <mxPoint x="160.5" y="260" />
              </Array>
            </mxGeometry>
          </mxCell>
        </UserObject>
        <mxCell id="77" parent="1" vertex="1">
          <mxGeometry x="160" y="794" as="geometry" />
        </mxCell>
        <UserObject label="" tags="连接线" id="78">
          <mxCell style="vsdxID=373;edgeStyle=none;startArrow=none;endArrow=none;startSize=9;endSize=9;spacingTop=0;spacingBottom=0;spacingLeft=0;spacingRight=0;verticalAlign=middle;html=1;labelBackgroundColor=#ffffff;rounded=0;exitX=0;exitY=0.5;exitDx=0;exitDy=0;exitPerimeter=0;" parent="1" source="50" target="77" edge="1">
            <mxGeometry relative="1" as="geometry">
              <mxPoint x="-1" as="offset" />
              <Array as="points">
                <mxPoint x="159.9" y="787" />
              </Array>
            </mxGeometry>
          </mxCell>
        </UserObject>
        <mxCell id="79" parent="1" vertex="1">
          <mxGeometry x="160" y="428" as="geometry" />
        </mxCell>
        <UserObject label="" tags="连接线" id="80">
          <mxCell style="vsdxID=372;edgeStyle=none;startArrow=none;endArrow=none;startSize=9;endSize=9;spacingTop=0;spacingBottom=0;spacingLeft=0;spacingRight=0;verticalAlign=middle;html=1;labelBackgroundColor=#ffffff;rounded=0;exitX=0;exitY=0.5;exitDx=0;exitDy=0;exitPerimeter=0;" parent="1" source="35" target="79" edge="1">
            <mxGeometry relative="1" as="geometry">
              <mxPoint x="-1" as="offset" />
              <Array as="points">
                <mxPoint x="160.5" y="423" />
              </Array>
            </mxGeometry>
          </mxCell>
        </UserObject>
        <mxCell id="81" parent="1" vertex="1">
          <mxGeometry x="160" y="388" as="geometry" />
        </mxCell>
        <UserObject label="" tags="连接线" id="82">
          <mxCell style="vsdxID=370;edgeStyle=none;startArrow=none;endArrow=none;startSize=9;endSize=9;spacingTop=0;spacingBottom=0;spacingLeft=0;spacingRight=0;verticalAlign=middle;html=1;labelBackgroundColor=#ffffff;rounded=0;exitX=0;exitY=0.5454545454545454;exitDx=0;exitDy=0;exitPerimeter=0;" parent="1" source="34" target="81" edge="1">
            <mxGeometry relative="1" as="geometry">
              <mxPoint x="-1" as="offset" />
              <Array as="points">
                <mxPoint x="160.5" y="382" />
              </Array>
            </mxGeometry>
          </mxCell>
        </UserObject>
        <mxCell id="83" parent="1" vertex="1">
          <mxGeometry x="160" y="308" as="geometry" />
        </mxCell>
        <UserObject label="" tags="连接线" id="84">
          <mxCell style="vsdxID=369;edgeStyle=none;startArrow=none;endArrow=none;startSize=9;endSize=9;spacingTop=0;spacingBottom=0;spacingLeft=0;spacingRight=0;verticalAlign=middle;html=1;labelBackgroundColor=#ffffff;rounded=0;exitX=0;exitY=0.5;exitDx=0;exitDy=0;exitPerimeter=0;" parent="1" source="3" target="83" edge="1">
            <mxGeometry relative="1" as="geometry">
              <mxPoint as="offset" />
              <Array as="points">
                <mxPoint x="160.5" y="312" />
              </Array>
            </mxGeometry>
          </mxCell>
        </UserObject>
        <mxCell id="85" parent="1" vertex="1">
          <mxGeometry x="160" y="899" as="geometry" />
        </mxCell>
        <UserObject label="" tags="连接线" id="86">
          <mxCell style="vsdxID=367;edgeStyle=none;startArrow=none;endArrow=none;startSize=9;endSize=9;spacingTop=0;spacingBottom=0;spacingLeft=0;spacingRight=0;verticalAlign=middle;html=1;labelBackgroundColor=#ffffff;rounded=0;exitX=0;exitY=0.5;exitDx=0;exitDy=0;exitPerimeter=0;" parent="1" source="63" target="85" edge="1">
            <mxGeometry relative="1" as="geometry">
              <mxPoint x="-1" as="offset" />
              <Array as="points">
                <mxPoint x="159.9" y="941" />
              </Array>
            </mxGeometry>
          </mxCell>
        </UserObject>
        <mxCell id="87" parent="1" vertex="1">
          <mxGeometry x="160" y="624" as="geometry" />
        </mxCell>
        <UserObject label="" tags="连接线" id="88">
          <mxCell style="vsdxID=366;edgeStyle=none;startArrow=none;endArrow=none;startSize=9;endSize=9;spacingTop=0;spacingBottom=0;spacingLeft=0;spacingRight=0;verticalAlign=middle;html=1;labelBackgroundColor=#ffffff;rounded=0;exitX=0;exitY=0.5;exitDx=0;exitDy=0;exitPerimeter=0;" parent="1" source="62" target="87" edge="1">
            <mxGeometry relative="1" as="geometry">
              <mxPoint y="-1" as="offset" />
              <Array as="points">
                <mxPoint x="160.3" y="899" />
              </Array>
            </mxGeometry>
          </mxCell>
        </UserObject>
        <UserObject label="" tags="连接线" id="89">
          <mxCell style="vsdxID=364;edgeStyle=none;startArrow=none;endArrow=none;startSize=9;endSize=9;spacingTop=0;spacingBottom=0;spacingLeft=0;spacingRight=0;verticalAlign=middle;html=1;labelBackgroundColor=#ffffff;rounded=0;exitX=0;exitY=0.5;exitDx=0;exitDy=0;exitPerimeter=0;entryX=1;entryY=0.5;entryDx=0;entryDy=0;entryPerimeter=0;" parent="1" source="36" target="2" edge="1">
            <mxGeometry relative="1" as="geometry">
              <mxPoint x="-1" as="offset" />
              <Array as="points" />
            </mxGeometry>
          </mxCell>
        </UserObject>
        <UserObject label="" tags="连接线" id="91">
          <mxCell style="vsdxID=355;edgeStyle=none;startArrow=none;endArrow=none;startSize=9;endSize=9;spacingTop=0;spacingBottom=0;spacingLeft=0;spacingRight=0;verticalAlign=middle;html=1;labelBackgroundColor=#ffffff;rounded=0;exitX=0;exitY=0.5;exitDx=0;exitDy=0;exitPerimeter=0;entryX=1;entryY=0.5;entryDx=0;entryDy=0;entryPerimeter=0;fillColor=#f5f5f5;strokeColor=#666666;" parent="1" source="73" target="70" edge="1">
            <mxGeometry relative="1" as="geometry">
              <mxPoint as="offset" />
              <Array as="points">
                <mxPoint x="592" y="950" />
                <mxPoint x="592" y="930" />
              </Array>
            </mxGeometry>
          </mxCell>
        </UserObject>
        <UserObject label="" tags="连接线" id="92">
          <mxCell style="vsdxID=354;edgeStyle=none;startArrow=none;endArrow=none;startSize=9;endSize=9;spacingTop=0;spacingBottom=0;spacingLeft=0;spacingRight=0;verticalAlign=middle;html=1;labelBackgroundColor=#ffffff;rounded=0;exitX=1;exitY=0.5;exitDx=0;exitDy=0;exitPerimeter=0;entryX=0;entryY=0.5;entryDx=0;entryDy=0;entryPerimeter=0;fillColor=#f5f5f5;strokeColor=#666666;" parent="1" source="70" target="72" edge="1">
            <mxGeometry relative="1" as="geometry">
              <mxPoint as="offset" />
              <Array as="points">
                <mxPoint x="592.07" y="930" />
                <mxPoint x="592.07" y="918.83" />
              </Array>
            </mxGeometry>
          </mxCell>
        </UserObject>
        <UserObject label="" tags="连接线" id="93">
          <mxCell style="vsdxID=353;edgeStyle=none;startArrow=none;endArrow=none;startSize=9;endSize=9;spacingTop=0;spacingBottom=0;spacingLeft=0;spacingRight=0;verticalAlign=middle;html=1;labelBackgroundColor=#ffffff;rounded=0;exitX=0;exitY=0.5454545454545454;exitDx=0;exitDy=0;exitPerimeter=0;entryX=1.0147058823529411;entryY=0.5;entryDx=0;entryDy=0;entryPerimeter=0;" parent="1" source="71" target="66" edge="1">
            <mxGeometry relative="1" as="geometry">
              <mxPoint y="-1" as="offset" />
              <Array as="points">
                <mxPoint x="473" y="988" />
                <mxPoint x="473" y="941.51" />
              </Array>
            </mxGeometry>
          </mxCell>
        </UserObject>
        <UserObject label="" tags="连接线" id="94">
          <mxCell style="vsdxID=352;edgeStyle=none;startArrow=none;endArrow=none;startSize=9;endSize=9;spacingTop=0;spacingBottom=0;spacingLeft=0;spacingRight=0;verticalAlign=middle;html=1;labelBackgroundColor=#ffffff;rounded=0;exitX=0;exitY=0.5;exitDx=0;exitDy=0;exitPerimeter=0;entryX=1.0147058823529411;entryY=0.5;entryDx=0;entryDy=0;entryPerimeter=0;" parent="1" source="69" target="66" edge="1">
            <mxGeometry relative="1" as="geometry">
              <mxPoint as="offset" />
              <Array as="points">
                <mxPoint x="473" y="959" />
                <mxPoint x="473" y="941.34" />
              </Array>
            </mxGeometry>
          </mxCell>
        </UserObject>
        <UserObject label="" tags="连接线" id="95">
          <mxCell style="vsdxID=351;edgeStyle=none;startArrow=none;endArrow=none;startSize=9;endSize=9;spacingTop=0;spacingBottom=0;spacingLeft=0;spacingRight=0;verticalAlign=middle;html=1;labelBackgroundColor=#ffffff;rounded=0;exitX=0;exitY=0.5;exitDx=0;exitDy=0;exitPerimeter=0;entryX=1.0147058823529411;entryY=0.5;entryDx=0;entryDy=0;entryPerimeter=0;" parent="1" source="70" target="66" edge="1">
            <mxGeometry relative="1" as="geometry">
              <mxPoint x="-1" as="offset" />
              <Array as="points">
                <mxPoint x="473" y="930" />
                <mxPoint x="473" y="941.17" />
              </Array>
            </mxGeometry>
          </mxCell>
        </UserObject>
        <UserObject label="" tags="连接线" id="96">
          <mxCell style="vsdxID=350;edgeStyle=none;startArrow=none;endArrow=none;startSize=9;endSize=9;spacingTop=0;spacingBottom=0;spacingLeft=0;spacingRight=0;verticalAlign=middle;html=1;labelBackgroundColor=#ffffff;rounded=0;exitX=1.0147058823529411;exitY=0.5;exitDx=0;exitDy=0;exitPerimeter=0;entryX=0;entryY=0.5;entryDx=0;entryDy=0;entryPerimeter=0;" parent="1" source="66" target="68" edge="1">
            <mxGeometry relative="1" as="geometry">
              <mxPoint as="offset" />
              <Array as="points">
                <mxPoint x="472.69" y="941" />
                <mxPoint x="472.69" y="901" />
              </Array>
            </mxGeometry>
          </mxCell>
        </UserObject>
        <UserObject label="" tags="连接线" id="97">
          <mxCell style="vsdxID=348;edgeStyle=none;startArrow=none;endArrow=none;startSize=9;endSize=9;spacingTop=0;spacingBottom=0;spacingLeft=0;spacingRight=0;verticalAlign=middle;html=1;labelBackgroundColor=#ffffff;rounded=0;exitX=0;exitY=0.5;exitDx=0;exitDy=0;exitPerimeter=0;entryX=1;entryY=0.5;entryDx=0;entryDy=0;entryPerimeter=0;" parent="1" source="67" target="63" edge="1">
            <mxGeometry relative="1" as="geometry">
              <mxPoint as="offset" />
              <Array as="points">
                <mxPoint x="352" y="970" />
                <mxPoint x="352" y="941.17" />
              </Array>
            </mxGeometry>
          </mxCell>
        </UserObject>
        <UserObject label="" tags="连接线" id="98">
          <mxCell style="vsdxID=347;edgeStyle=none;startArrow=none;endArrow=none;startSize=9;endSize=9;spacingTop=0;spacingBottom=0;spacingLeft=0;spacingRight=0;verticalAlign=middle;html=1;labelBackgroundColor=#ffffff;rounded=0;exitX=0;exitY=0.5;exitDx=0;exitDy=0;exitPerimeter=0;entryX=1;entryY=0.5;entryDx=0;entryDy=0;entryPerimeter=0;" parent="1" source="66" target="63" edge="1">
            <mxGeometry relative="1" as="geometry">
              <mxPoint x="-1" as="offset" />
              <Array as="points" />
            </mxGeometry>
          </mxCell>
        </UserObject>
        <UserObject label="" tags="连接线" id="99">
          <mxCell style="vsdxID=346;edgeStyle=none;startArrow=none;endArrow=none;startSize=9;endSize=9;spacingTop=0;spacingBottom=0;spacingLeft=0;spacingRight=0;verticalAlign=middle;html=1;labelBackgroundColor=#ffffff;rounded=0;exitX=1;exitY=0.5;exitDx=0;exitDy=0;exitPerimeter=0;entryX=0;entryY=0.5;entryDx=0;entryDy=0;entryPerimeter=0;" parent="1" source="63" target="65" edge="1">
            <mxGeometry relative="1" as="geometry">
              <mxPoint as="offset" />
              <Array as="points">
                <mxPoint x="351.79" y="941" />
                <mxPoint x="351.79" y="912.17" />
              </Array>
            </mxGeometry>
          </mxCell>
        </UserObject>
        <UserObject label="" tags="连接线" id="100">
          <mxCell style="vsdxID=333;edgeStyle=none;startArrow=none;endArrow=none;startSize=9;endSize=9;spacingTop=0;spacingBottom=0;spacingLeft=0;spacingRight=0;verticalAlign=middle;html=1;labelBackgroundColor=#ffffff;rounded=0;exitX=0;exitY=0.5;exitDx=0;exitDy=0;exitPerimeter=0;entryX=1.0147058823529411;entryY=0.5;entryDx=0;entryDy=0;entryPerimeter=0;" parent="1" source="57" target="50" edge="1">
            <mxGeometry relative="1" as="geometry">
              <mxPoint as="offset" />
              <Array as="points">
                <mxPoint x="295" y="875" />
                <mxPoint x="295" y="786.89" />
              </Array>
            </mxGeometry>
          </mxCell>
        </UserObject>
        <UserObject label="" tags="连接线" id="101">
          <mxCell style="vsdxID=332;edgeStyle=none;startArrow=none;endArrow=none;startSize=9;endSize=9;spacingTop=0;spacingBottom=0;spacingLeft=0;spacingRight=0;verticalAlign=middle;html=1;labelBackgroundColor=#ffffff;rounded=0;exitX=0;exitY=0.5454545454545454;exitDx=0;exitDy=0;exitPerimeter=0;entryX=1.0147058823529411;entryY=0.5;entryDx=0;entryDy=0;entryPerimeter=0;" parent="1" source="56" target="50" edge="1">
            <mxGeometry relative="1" as="geometry">
              <mxPoint as="offset" />
              <Array as="points">
                <mxPoint x="295" y="846" />
                <mxPoint x="295" y="787.26" />
              </Array>
            </mxGeometry>
          </mxCell>
        </UserObject>
        <UserObject label="" tags="连接线" id="102">
          <mxCell style="vsdxID=331;edgeStyle=none;startArrow=none;endArrow=none;startSize=9;endSize=9;spacingTop=0;spacingBottom=0;spacingLeft=0;spacingRight=0;verticalAlign=middle;html=1;labelBackgroundColor=#ffffff;rounded=0;exitX=0;exitY=0.5;exitDx=0;exitDy=0;exitPerimeter=0;entryX=1.0147058823529411;entryY=0.5;entryDx=0;entryDy=0;entryPerimeter=0;" parent="1" source="55" target="50" edge="1">
            <mxGeometry relative="1" as="geometry">
              <mxPoint y="-1" as="offset" />
              <Array as="points">
                <mxPoint x="295" y="816" />
                <mxPoint x="295" y="786.63" />
              </Array>
            </mxGeometry>
          </mxCell>
        </UserObject>
        <UserObject label="" tags="连接线" id="103">
          <mxCell style="vsdxID=330;edgeStyle=none;startArrow=none;endArrow=none;startSize=9;endSize=9;spacingTop=0;spacingBottom=0;spacingLeft=0;spacingRight=0;verticalAlign=middle;html=1;labelBackgroundColor=#ffffff;rounded=0;exitX=0;exitY=0.5;exitDx=0;exitDy=0;exitPerimeter=0;entryX=1.0147058823529411;entryY=0.5;entryDx=0;entryDy=0;entryPerimeter=0;" parent="1" source="54" target="50" edge="1">
            <mxGeometry relative="1" as="geometry">
              <mxPoint as="offset" />
              <Array as="points" />
            </mxGeometry>
          </mxCell>
        </UserObject>
        <UserObject label="" tags="连接线" id="104">
          <mxCell style="vsdxID=329;edgeStyle=none;startArrow=none;endArrow=none;startSize=9;endSize=9;spacingTop=0;spacingBottom=0;spacingLeft=0;spacingRight=0;verticalAlign=middle;html=1;labelBackgroundColor=#ffffff;rounded=0;exitX=0;exitY=0.5;exitDx=0;exitDy=0;exitPerimeter=0;entryX=1.0147058823529411;entryY=0.5;entryDx=0;entryDy=0;entryPerimeter=0;" parent="1" source="53" target="50" edge="1">
            <mxGeometry relative="1" as="geometry">
              <mxPoint as="offset" />
              <Array as="points">
                <mxPoint x="295" y="757" />
                <mxPoint x="295" y="786.37" />
              </Array>
            </mxGeometry>
          </mxCell>
        </UserObject>
        <UserObject label="" tags="连接线" id="105">
          <mxCell style="vsdxID=328;edgeStyle=none;startArrow=none;endArrow=none;startSize=9;endSize=9;spacingTop=0;spacingBottom=0;spacingLeft=0;spacingRight=0;verticalAlign=middle;html=1;labelBackgroundColor=#ffffff;rounded=0;exitX=0;exitY=0.5;exitDx=0;exitDy=0;exitPerimeter=0;entryX=1.0147058823529411;entryY=0.5;entryDx=0;entryDy=0;entryPerimeter=0;" parent="1" source="52" target="50" edge="1">
            <mxGeometry relative="1" as="geometry">
              <mxPoint y="-1" as="offset" />
              <Array as="points">
                <mxPoint x="295" y="728" />
                <mxPoint x="295" y="786.74" />
              </Array>
            </mxGeometry>
          </mxCell>
        </UserObject>
        <UserObject label="" tags="连接线" id="106">
          <mxCell style="vsdxID=327;edgeStyle=none;startArrow=none;endArrow=none;startSize=9;endSize=9;spacingTop=0;spacingBottom=0;spacingLeft=0;spacingRight=0;verticalAlign=middle;html=1;labelBackgroundColor=#ffffff;rounded=0;exitX=0;exitY=0.5;exitDx=0;exitDy=0;exitPerimeter=0;entryX=1.0147058823529411;entryY=0.5;entryDx=0;entryDy=0;entryPerimeter=0;" parent="1" source="51" target="50" edge="1">
            <mxGeometry relative="1" as="geometry">
              <mxPoint y="-1" as="offset" />
              <Array as="points">
                <mxPoint x="295" y="699" />
                <mxPoint x="295" y="787.11" />
              </Array>
            </mxGeometry>
          </mxCell>
        </UserObject>
        <UserObject label="" tags="连接线" id="107">
          <mxCell style="vsdxID=326;edgeStyle=none;startArrow=none;endArrow=none;startSize=9;endSize=9;spacingTop=0;spacingBottom=0;spacingLeft=0;spacingRight=0;verticalAlign=middle;html=1;labelBackgroundColor=#ffffff;rounded=0;exitX=0;exitY=0.5;exitDx=0;exitDy=0;exitPerimeter=0;entryX=1;entryY=0.5;entryDx=0;entryDy=0;entryPerimeter=0;fillColor=#f5f5f5;strokeColor=#666666;" parent="1" source="61" target="58" edge="1">
            <mxGeometry relative="1" as="geometry">
              <mxPoint as="offset" />
              <Array as="points">
                <mxPoint x="490.5" y="784" />
                <mxPoint x="490.5" y="756.93" />
              </Array>
            </mxGeometry>
          </mxCell>
        </UserObject>
        <UserObject label="" tags="连接线" id="108">
          <mxCell style="vsdxID=325;edgeStyle=none;startArrow=none;endArrow=none;startSize=9;endSize=9;spacingTop=0;spacingBottom=0;spacingLeft=0;spacingRight=0;verticalAlign=middle;html=1;labelBackgroundColor=#ffffff;rounded=0;exitX=0;exitY=0.5;exitDx=0;exitDy=0;exitPerimeter=0;entryX=1;entryY=0.5;entryDx=0;entryDy=0;entryPerimeter=0;fillColor=#f5f5f5;strokeColor=#666666;" parent="1" source="59" target="58" edge="1">
            <mxGeometry relative="1" as="geometry">
              <mxPoint y="-1" as="offset" />
              <Array as="points">
                <mxPoint x="490.5" y="730" />
                <mxPoint x="490.5" y="757.07" />
              </Array>
            </mxGeometry>
          </mxCell>
        </UserObject>
        <UserObject label="" tags="连接线" id="109">
          <mxCell style="vsdxID=324;edgeStyle=none;startArrow=none;endArrow=none;startSize=9;endSize=9;spacingTop=0;spacingBottom=0;spacingLeft=0;spacingRight=0;verticalAlign=middle;html=1;labelBackgroundColor=#ffffff;rounded=0;exitX=1;exitY=0.5;exitDx=0;exitDy=0;exitPerimeter=0;entryX=0;entryY=0.5;entryDx=0;entryDy=0;entryPerimeter=0;fillColor=#f5f5f5;strokeColor=#666666;" parent="1" source="58" target="60" edge="1">
            <mxGeometry relative="1" as="geometry">
              <mxPoint as="offset" />
              <Array as="points" />
            </mxGeometry>
          </mxCell>
        </UserObject>
        <UserObject label="" tags="连接线" id="110">
          <mxCell style="vsdxID=247;edgeStyle=none;startArrow=none;endArrow=none;startSize=9;endSize=9;spacingTop=0;spacingBottom=0;spacingLeft=0;spacingRight=0;verticalAlign=middle;html=1;labelBackgroundColor=#ffffff;rounded=0;exitX=0;exitY=0.5;exitDx=0;exitDy=0;exitPerimeter=0;entryX=1.0147058823529411;entryY=0.5;entryDx=0;entryDy=0;entryPerimeter=0;" parent="1" source="6" target="3" edge="1">
            <mxGeometry relative="1" as="geometry">
              <mxPoint as="offset" />
              <Array as="points" />
            </mxGeometry>
          </mxCell>
        </UserObject>
        <UserObject label="" tags="连接线" id="111">
          <mxCell style="vsdxID=246;edgeStyle=none;startArrow=none;endArrow=none;startSize=9;endSize=9;spacingTop=0;spacingBottom=0;spacingLeft=0;spacingRight=0;verticalAlign=middle;html=1;labelBackgroundColor=#ffffff;rounded=0;exitX=1.0147058823529411;exitY=0.5;exitDx=0;exitDy=0;exitPerimeter=0;" parent="1" source="3" edge="1">
            <mxGeometry relative="1" as="geometry">
              <mxPoint as="offset" />
              <Array as="points">
                <mxPoint x="297.65" y="312" />
                <mxPoint x="297.65" y="280.83" />
              </Array>
              <mxPoint x="312" y="281" as="targetPoint" />
            </mxGeometry>
          </mxCell>
        </UserObject>
        <UserObject label="" tags="连接线" id="112">
          <mxCell style="vsdxID=136;edgeStyle=none;startArrow=none;endArrow=none;startSize=9;endSize=9;spacingTop=0;spacingBottom=0;spacingLeft=0;spacingRight=0;verticalAlign=middle;html=1;labelBackgroundColor=#ffffff;rounded=0;exitX=1;exitY=0.5;exitDx=0;exitDy=0;exitPerimeter=0;entryX=0;entryY=0.5;entryDx=0;entryDy=0;entryPerimeter=0;fillColor=#f5f5f5;strokeColor=#666666;" parent="1" source="18" target="21" edge="1">
            <mxGeometry relative="1" as="geometry">
              <mxPoint x="-1" as="offset" />
              <Array as="points" />
            </mxGeometry>
          </mxCell>
        </UserObject>
        <UserObject label="" tags="连接线" id="113">
          <mxCell style="vsdxID=135;edgeStyle=none;startArrow=none;endArrow=none;startSize=9;endSize=9;spacingTop=0;spacingBottom=0;spacingLeft=0;spacingRight=0;verticalAlign=middle;html=1;labelBackgroundColor=#ffffff;rounded=0;exitX=1;exitY=0.5;exitDx=0;exitDy=0;exitPerimeter=0;entryX=0;entryY=0.5;entryDx=0;entryDy=0;entryPerimeter=0;fillColor=#f5f5f5;strokeColor=#666666;" parent="1" source="16" target="20" edge="1">
            <mxGeometry relative="1" as="geometry">
              <mxPoint as="offset" />
              <Array as="points" />
            </mxGeometry>
          </mxCell>
        </UserObject>
        <UserObject label="" tags="连接线" id="114">
          <mxCell style="vsdxID=134;edgeStyle=none;startArrow=none;endArrow=none;startSize=9;endSize=9;spacingTop=0;spacingBottom=0;spacingLeft=0;spacingRight=0;verticalAlign=middle;html=1;labelBackgroundColor=#ffffff;rounded=0;exitX=1;exitY=0.5;exitDx=0;exitDy=0;exitPerimeter=0;entryX=0;entryY=0.5;entryDx=0;entryDy=0;entryPerimeter=0;fillColor=#f5f5f5;strokeColor=#666666;" parent="1" source="14" target="19" edge="1">
            <mxGeometry relative="1" as="geometry">
              <mxPoint as="offset" />
              <Array as="points" />
            </mxGeometry>
          </mxCell>
        </UserObject>
        <UserObject label="" tags="连接线" id="115">
          <mxCell style="vsdxID=248;edgeStyle=none;startArrow=none;endArrow=none;startSize=9;endSize=9;spacingTop=0;spacingBottom=0;spacingLeft=0;spacingRight=0;verticalAlign=middle;html=1;labelBackgroundColor=#ffffff;rounded=0;exitX=0;exitY=0.5;exitDx=0;exitDy=0;exitPerimeter=0;entryX=1.0147058823529411;entryY=0.5;entryDx=0;entryDy=0;entryPerimeter=0;" parent="1" source="7" target="3" edge="1">
            <mxGeometry relative="1" as="geometry">
              <mxPoint y="-1" as="offset" />
              <Array as="points">
                <mxPoint x="298" y="343" />
                <mxPoint x="298" y="311.83" />
              </Array>
            </mxGeometry>
          </mxCell>
        </UserObject>
        <UserObject label="" tags="连接线" id="116">
          <mxCell style="vsdxID=249;edgeStyle=none;startArrow=none;endArrow=none;startSize=9;endSize=9;spacingTop=0;spacingBottom=0;spacingLeft=0;spacingRight=0;verticalAlign=middle;html=1;labelBackgroundColor=#ffffff;rounded=0;exitX=0;exitY=0.5454545454545454;exitDx=0;exitDy=0;exitPerimeter=0;entryX=1.0147058823529411;entryY=0.5;entryDx=0;entryDy=0;entryPerimeter=0;" parent="1" source="8" target="3" edge="1">
            <mxGeometry relative="1" as="geometry">
              <mxPoint as="offset" />
              <Array as="points">
                <mxPoint x="298" y="375" />
                <mxPoint x="298" y="312" />
              </Array>
            </mxGeometry>
          </mxCell>
        </UserObject>
        <UserObject label="" tags="连接线" id="117">
          <mxCell style="vsdxID=250;edgeStyle=none;startArrow=none;endArrow=none;startSize=9;endSize=9;spacingTop=0;spacingBottom=0;spacingLeft=0;spacingRight=0;verticalAlign=middle;html=1;labelBackgroundColor=#ffffff;rounded=0;exitX=0;exitY=0.5;exitDx=0;exitDy=0;exitPerimeter=0;entryX=1.0147058823529411;entryY=0.5;entryDx=0;entryDy=0;entryPerimeter=0;" parent="1" source="9" target="3" edge="1">
            <mxGeometry relative="1" as="geometry">
              <mxPoint y="-1" as="offset" />
              <Array as="points">
                <mxPoint x="298" y="406" />
                <mxPoint x="298" y="312" />
              </Array>
            </mxGeometry>
          </mxCell>
        </UserObject>
        <UserObject label="" tags="连接线" id="118">
          <mxCell style="vsdxID=251;edgeStyle=none;startArrow=none;endArrow=none;startSize=9;endSize=9;spacingTop=0;spacingBottom=0;spacingLeft=0;spacingRight=0;verticalAlign=middle;html=1;labelBackgroundColor=#ffffff;rounded=0;exitX=0;exitY=0.5;exitDx=0;exitDy=0;exitPerimeter=0;entryX=1.0147058823529411;entryY=0.5;entryDx=0;entryDy=0;entryPerimeter=0;" parent="1" source="10" target="3" edge="1">
            <mxGeometry relative="1" as="geometry">
              <mxPoint y="-1" as="offset" />
              <Array as="points">
                <mxPoint x="298" y="437" />
                <mxPoint x="298" y="312" />
              </Array>
            </mxGeometry>
          </mxCell>
        </UserObject>
        <UserObject label="" tags="连接线" id="119">
          <mxCell style="vsdxID=252;edgeStyle=none;startArrow=none;endArrow=none;startSize=9;endSize=9;spacingTop=0;spacingBottom=0;spacingLeft=0;spacingRight=0;verticalAlign=middle;html=1;labelBackgroundColor=#ffffff;rounded=0;exitX=0;exitY=0.5454545454545454;exitDx=0;exitDy=0;exitPerimeter=0;entryX=1.0147058823529411;entryY=0.5;entryDx=0;entryDy=0;entryPerimeter=0;" parent="1" source="11" target="3" edge="1">
            <mxGeometry relative="1" as="geometry">
              <mxPoint as="offset" />
              <Array as="points">
                <mxPoint x="298" y="499" />
                <mxPoint x="298" y="312" />
              </Array>
            </mxGeometry>
          </mxCell>
        </UserObject>
        <UserObject label="" tags="连接线" id="120">
          <mxCell style="vsdxID=253;edgeStyle=none;startArrow=none;endArrow=none;startSize=9;endSize=9;spacingTop=0;spacingBottom=0;spacingLeft=0;spacingRight=0;verticalAlign=middle;html=1;labelBackgroundColor=#ffffff;rounded=0;exitX=0;exitY=0.5;exitDx=0;exitDy=0;exitPerimeter=0;entryX=1.0147058823529411;entryY=0.5;entryDx=0;entryDy=0;entryPerimeter=0;" parent="1" source="12" target="3" edge="1">
            <mxGeometry relative="1" as="geometry">
              <mxPoint y="-1" as="offset" />
              <Array as="points">
                <mxPoint x="298" y="543" />
                <mxPoint x="298" y="312" />
              </Array>
            </mxGeometry>
          </mxCell>
        </UserObject>
        <UserObject label="" tags="连接线" id="121">
          <mxCell style="vsdxID=256;edgeStyle=none;startArrow=none;endArrow=none;startSize=9;endSize=9;spacingTop=0;spacingBottom=0;spacingLeft=0;spacingRight=0;verticalAlign=middle;html=1;labelBackgroundColor=#ffffff;rounded=0;exitX=0;exitY=0.5;exitDx=0;exitDy=0;exitPerimeter=0;entryX=1;entryY=0.5;entryDx=0;entryDy=0;entryPerimeter=0;" parent="1" source="22" target="10" edge="1">
            <mxGeometry relative="1" as="geometry">
              <mxPoint y="-1" as="offset" />
              <Array as="points">
                <mxPoint x="415" y="407" />
                <mxPoint x="415" y="437" />
              </Array>
            </mxGeometry>
          </mxCell>
        </UserObject>
        <UserObject label="" tags="连接线" id="122">
          <mxCell style="vsdxID=257;edgeStyle=none;startArrow=none;endArrow=none;startSize=9;endSize=9;spacingTop=0;spacingBottom=0;spacingLeft=0;spacingRight=0;verticalAlign=middle;html=1;labelBackgroundColor=#ffffff;rounded=0;exitX=0;exitY=0.5;exitDx=0;exitDy=0;exitPerimeter=0;entryX=1;entryY=0.5;entryDx=0;entryDy=0;entryPerimeter=0;" parent="1" source="25" target="10" edge="1">
            <mxGeometry relative="1" as="geometry">
              <mxPoint as="offset" />
              <Array as="points">
                <mxPoint x="415" y="467" />
                <mxPoint x="415" y="437" />
              </Array>
            </mxGeometry>
          </mxCell>
        </UserObject>
        <UserObject label="" tags="连接线" id="124">
          <mxCell style="vsdxID=260;edgeStyle=none;startArrow=none;endArrow=none;startSize=9;endSize=9;spacingTop=0;spacingBottom=0;spacingLeft=0;spacingRight=0;verticalAlign=middle;html=1;labelBackgroundColor=#ffffff;rounded=0;exitX=0;exitY=0.5;exitDx=0;exitDy=0;exitPerimeter=0;entryX=1;entryY=0.5;entryDx=0;entryDy=0;entryPerimeter=0;" parent="1" source="13" target="5" edge="1">
            <mxGeometry relative="1" as="geometry">
              <mxPoint y="-1" as="offset" />
              <Array as="points">
                <mxPoint x="417" y="223" />
                <mxPoint x="417" y="281.33" />
              </Array>
            </mxGeometry>
          </mxCell>
        </UserObject>
        <UserObject label="" tags="连接线" id="125">
          <mxCell style="vsdxID=263;edgeStyle=none;startArrow=none;endArrow=none;startSize=9;endSize=9;spacingTop=0;spacingBottom=0;spacingLeft=0;spacingRight=0;verticalAlign=middle;html=1;labelBackgroundColor=#ffffff;rounded=0;entryX=1;entryY=0.5;entryDx=0;entryDy=0;entryPerimeter=0;exitX=-0.001;exitY=0.501;exitDx=0;exitDy=0;exitPerimeter=0;" parent="1" source="18" edge="1">
            <mxGeometry relative="1" as="geometry">
              <mxPoint as="offset" />
              <Array as="points">
                <mxPoint x="417" y="370" />
                <mxPoint x="417" y="281.32" />
              </Array>
              <mxPoint x="430" y="366" as="sourcePoint" />
              <mxPoint x="391" y="281" as="targetPoint" />
            </mxGeometry>
          </mxCell>
        </UserObject>
        <mxCell id="126" parent="1" vertex="1">
          <mxGeometry x="417" y="285" as="geometry" />
        </mxCell>
        <UserObject label="" tags="连接线" id="127">
          <mxCell style="vsdxID=269;edgeStyle=none;startArrow=none;endArrow=none;startSize=9;endSize=9;spacingTop=0;spacingBottom=0;spacingLeft=0;spacingRight=0;verticalAlign=middle;html=1;labelBackgroundColor=#ffffff;rounded=0;exitX=0;exitY=0.5;exitDx=0;exitDy=0;exitPerimeter=0;" parent="1" source="15" target="126" edge="1">
            <mxGeometry relative="1" as="geometry">
              <mxPoint x="-3" as="offset" />
              <Array as="points">
                <mxPoint x="417" y="281" />
              </Array>
            </mxGeometry>
          </mxCell>
        </UserObject>
        <mxCell id="128" parent="1" vertex="1">
          <mxGeometry x="417" y="256" as="geometry" />
        </mxCell>
        <UserObject label="" tags="连接线" id="129">
          <mxCell style="vsdxID=272;edgeStyle=none;startArrow=none;endArrow=none;startSize=9;endSize=9;spacingTop=0;spacingBottom=0;spacingLeft=0;spacingRight=0;verticalAlign=middle;html=1;labelBackgroundColor=#ffffff;rounded=0;exitX=0;exitY=0.5;exitDx=0;exitDy=0;exitPerimeter=0;" parent="1" source="14" target="128" edge="1">
            <mxGeometry relative="1" as="geometry">
              <mxPoint x="-3" as="offset" />
              <Array as="points">
                <mxPoint x="417" y="252" />
              </Array>
            </mxGeometry>
          </mxCell>
        </UserObject>
        <UserObject label="" tags="连接线" id="130">
          <mxCell style="vsdxID=276;edgeStyle=none;startArrow=none;endArrow=none;startSize=9;endSize=9;spacingTop=0;spacingBottom=0;spacingLeft=0;spacingRight=0;verticalAlign=middle;html=1;labelBackgroundColor=#ffffff;rounded=0;exitX=0;exitY=0.5;exitDx=0;exitDy=0;exitPerimeter=0;entryX=1;entryY=0.5;entryDx=0;entryDy=0;entryPerimeter=0;fillColor=#f5f5f5;strokeColor=#666666;" parent="1" source="26" target="22" edge="1">
            <mxGeometry relative="1" as="geometry">
              <mxPoint x="-1" as="offset" />
              <Array as="points" />
            </mxGeometry>
          </mxCell>
        </UserObject>
        <UserObject label="" tags="连接线" id="131">
          <mxCell style="vsdxID=278;edgeStyle=none;startArrow=none;endArrow=none;startSize=9;endSize=9;spacingTop=0;spacingBottom=0;spacingLeft=0;spacingRight=0;verticalAlign=middle;html=1;labelBackgroundColor=#ffffff;rounded=0;exitX=0;exitY=0.5;exitDx=0;exitDy=0;exitPerimeter=0;entryX=1;entryY=0.5;entryDx=0;entryDy=0;entryPerimeter=0;" parent="1" source="30" target="25" edge="1">
            <mxGeometry relative="1" as="geometry">
              <mxPoint as="offset" />
              <Array as="points">
                <mxPoint x="523" y="488" />
                <mxPoint x="523" y="467.46" />
              </Array>
            </mxGeometry>
          </mxCell>
        </UserObject>
        <UserObject label="" tags="连接线" id="132">
          <mxCell style="vsdxID=279;edgeStyle=none;startArrow=none;endArrow=none;startSize=9;endSize=9;spacingTop=0;spacingBottom=0;spacingLeft=0;spacingRight=0;verticalAlign=middle;html=1;labelBackgroundColor=#ffffff;rounded=0;exitX=0;exitY=0.5;exitDx=0;exitDy=0;exitPerimeter=0;entryX=1;entryY=0.5;entryDx=0;entryDy=0;entryPerimeter=0;" parent="1" source="29" target="25" edge="1">
            <mxGeometry relative="1" as="geometry">
              <mxPoint x="-1" as="offset" />
              <Array as="points">
                <mxPoint x="523" y="456" />
                <mxPoint x="523" y="467.17" />
              </Array>
            </mxGeometry>
          </mxCell>
        </UserObject>
        <UserObject label="" tags="连接线" id="133">
          <mxCell style="vsdxID=281;edgeStyle=none;startArrow=none;endArrow=none;startSize=9;endSize=9;spacingTop=0;spacingBottom=0;spacingLeft=0;spacingRight=0;verticalAlign=middle;html=1;labelBackgroundColor=#ffffff;rounded=0;exitX=1;exitY=0.5;exitDx=0;exitDy=0;exitPerimeter=0;entryX=0;entryY=0.5;entryDx=0;entryDy=0;entryPerimeter=0;" parent="1" edge="1">
            <mxGeometry relative="1" as="geometry">
              <mxPoint y="-1" as="offset" />
              <Array as="points">
                <mxPoint x="417.12" y="543" />
                <mxPoint x="417.12" y="530.03" />
              </Array>
              <mxPoint x="391" y="542.9999999999999" as="sourcePoint" />
              <mxPoint x="433" y="529.9999999999999" as="targetPoint" />
            </mxGeometry>
          </mxCell>
        </UserObject>
        <UserObject label="" tags="连接线" id="134">
          <mxCell style="vsdxID=282;edgeStyle=none;startArrow=none;endArrow=none;startSize=9;endSize=9;spacingTop=0;spacingBottom=0;spacingLeft=0;spacingRight=0;verticalAlign=middle;html=1;labelBackgroundColor=#ffffff;rounded=0;exitX=-0.005;exitY=0.496;exitDx=0;exitDy=0;exitPerimeter=0;entryX=1;entryY=0.5;entryDx=0;entryDy=0;entryPerimeter=0;" parent="1" source="33" target="12" edge="1">
            <mxGeometry relative="1" as="geometry">
              <mxPoint as="offset" />
              <Array as="points">
                <mxPoint x="417" y="561" />
                <mxPoint x="417" y="542.8" />
              </Array>
              <mxPoint x="432" y="561" as="sourcePoint" />
              <mxPoint x="400" y="540" as="targetPoint" />
            </mxGeometry>
          </mxCell>
        </UserObject>
        <UserObject label="" tags="连接线" id="135">
          <mxCell style="vsdxID=295;edgeStyle=none;startArrow=none;endArrow=none;startSize=9;endSize=9;spacingTop=0;spacingBottom=0;spacingLeft=0;spacingRight=0;verticalAlign=middle;html=1;labelBackgroundColor=#ffffff;rounded=0;exitX=1.0128205128205128;exitY=0.5454545454545454;exitDx=0;exitDy=0;exitPerimeter=0;entryX=0;entryY=0.5454545454545454;entryDx=0;entryDy=0;entryPerimeter=0;fillColor=#f5f5f5;strokeColor=#666666;" parent="1" source="44" target="47" edge="1">
            <mxGeometry relative="1" as="geometry">
              <mxPoint x="-1" as="offset" />
              <Array as="points" />
            </mxGeometry>
          </mxCell>
        </UserObject>
        <UserObject label="" tags="连接线" id="136">
          <mxCell style="vsdxID=298;edgeStyle=none;startArrow=none;endArrow=none;startSize=9;endSize=9;spacingTop=0;spacingBottom=0;spacingLeft=0;spacingRight=0;verticalAlign=middle;html=1;labelBackgroundColor=#ffffff;rounded=0;exitX=1.0128205128205128;exitY=0.5;exitDx=0;exitDy=0;exitPerimeter=0;entryX=0;entryY=0.5;entryDx=0;entryDy=0;entryPerimeter=0;fillColor=#f5f5f5;strokeColor=#666666;" parent="1" source="43" target="48" edge="1">
            <mxGeometry relative="1" as="geometry">
              <mxPoint x="-1" as="offset" />
              <Array as="points" />
            </mxGeometry>
          </mxCell>
        </UserObject>
        <UserObject label="" tags="连接线" id="143">
          <mxCell style="vsdxID=323;edgeStyle=none;startArrow=none;endArrow=none;startSize=9;endSize=9;spacingTop=0;spacingBottom=0;spacingLeft=0;spacingRight=0;verticalAlign=middle;html=1;labelBackgroundColor=#ffffff;rounded=0;exitX=1;exitY=0.5;exitDx=0;exitDy=0;exitPerimeter=0;entryX=0;entryY=0.5;entryDx=0;entryDy=0;entryPerimeter=0;fillColor=#f5f5f5;strokeColor=#666666;" parent="1" source="53" target="58" edge="1">
            <mxGeometry relative="1" as="geometry">
              <mxPoint as="offset" />
              <Array as="points" />
            </mxGeometry>
          </mxCell>
        </UserObject>
        <mxCell id="144" parent="1" vertex="1">
          <mxGeometry x="160" y="941" as="geometry" />
        </mxCell>
        <UserObject label="" tags="连接线" id="145">
          <mxCell style="vsdxID=368;edgeStyle=none;startArrow=none;endArrow=none;startSize=9;endSize=9;spacingTop=0;spacingBottom=0;spacingLeft=0;spacingRight=0;verticalAlign=middle;html=1;labelBackgroundColor=#ffffff;rounded=0;exitX=0;exitY=0.5;exitDx=0;exitDy=0;exitPerimeter=0;" parent="1" source="64" target="144" edge="1">
            <mxGeometry relative="1" as="geometry">
              <mxPoint y="-1" as="offset" />
              <Array as="points">
                <mxPoint x="159.33" y="1010" />
              </Array>
            </mxGeometry>
          </mxCell>
        </UserObject>
        <UserObject label="" tags="连接线" id="146">
          <mxCell style="vsdxID=280;edgeStyle=none;startArrow=none;endArrow=none;startSize=9;endSize=9;spacingTop=0;spacingBottom=0;spacingLeft=0;spacingRight=0;verticalAlign=middle;html=1;labelBackgroundColor=#ffffff;rounded=0;exitX=1;exitY=0.5454545454545454;exitDx=0;exitDy=0;exitPerimeter=0;entryX=0;entryY=0.5454545454545454;entryDx=0;entryDy=0;entryPerimeter=0;" parent="1" source="11" target="31" edge="1">
            <mxGeometry relative="1" as="geometry">
              <mxPoint as="offset" />
              <Array as="points" />
            </mxGeometry>
          </mxCell>
        </UserObject>
        <mxCell id="0RrkFoQe_uaNpjge-cmk-147" style="edgeStyle=orthogonalEdgeStyle;rounded=0;orthogonalLoop=1;jettySize=auto;html=1;exitX=1;exitY=0.5;exitDx=0;exitDy=0;exitPerimeter=0;entryX=0.01;entryY=0.485;entryDx=0;entryDy=0;entryPerimeter=0;endArrow=none;endFill=0;" parent="1" source="36" target="37" edge="1">
          <mxGeometry relative="1" as="geometry" />
        </mxCell>
        <mxCell id="0RrkFoQe_uaNpjge-cmk-148" style="edgeStyle=orthogonalEdgeStyle;rounded=0;orthogonalLoop=1;jettySize=auto;html=1;exitX=1;exitY=0.5;exitDx=0;exitDy=0;exitPerimeter=0;entryX=-0.012;entryY=0.476;entryDx=0;entryDy=0;entryPerimeter=0;endArrow=none;endFill=0;" parent="1" source="36" target="42" edge="1">
          <mxGeometry relative="1" as="geometry" />
        </mxCell>
        <UserObject label="&lt;div style=&quot;font-size: 1px&quot;&gt;&lt;font style=&quot;font-size:14.11px;font-family:SimSun;color:#000000;direction:ltr;letter-spacing:0px;line-height:120%;opacity:1&quot;&gt;filter&lt;br/&gt;&lt;/font&gt;&lt;/div&gt;" tags="流程图" id="0RrkFoQe_uaNpjge-cmk-149">
          <mxCell style="verticalAlign=middle;align=center;overflow=width;vsdxID=356;fillColor=#dae8fc;shape=stencil(nZBLDoAgDERP0z3SIyjew0SURgSD+Lu9kMZoXLhwN9O+tukAlrNpJg1SzDH4QW/URgNYgZTkjA4UkwJUgGXng+6DX1zLfmoymdXo17xh5zmRJ6Q42BWCfc2oJfdAr+Yv+AP9Cb7OJ3H/2JG1HNGz/84klThPVCc=);strokeColor=#6c8ebf;spacingTop=-1;spacingBottom=-1;spacingLeft=-1;spacingRight=-1;points=[[1,0.5,0],[0.5,0.5,0],[0.5,0,0]];labelBackgroundColor=none;rounded=0;html=1;whiteSpace=wrap;" parent="1" vertex="1">
            <mxGeometry x="211" y="965" width="69" height="22" as="geometry" />
          </mxCell>
        </UserObject>
        <mxCell id="0RrkFoQe_uaNpjge-cmk-150" style="edgeStyle=orthogonalEdgeStyle;rounded=0;orthogonalLoop=1;jettySize=auto;html=1;exitX=1;exitY=0.5;exitDx=0;exitDy=0;exitPerimeter=0;entryX=-0.004;entryY=0.516;entryDx=0;entryDy=0;entryPerimeter=0;endArrow=none;endFill=0;" parent="1" source="2" target="0RrkFoQe_uaNpjge-cmk-149" edge="1">
          <mxGeometry relative="1" as="geometry">
            <Array as="points">
              <mxPoint x="160" y="624" />
              <mxPoint x="160" y="976" />
            </Array>
          </mxGeometry>
        </mxCell>
        <mxCell id="0RrkFoQe_uaNpjge-cmk-151" style="edgeStyle=orthogonalEdgeStyle;rounded=0;orthogonalLoop=1;jettySize=auto;html=1;exitX=1;exitY=0.5;exitDx=0;exitDy=0;exitPerimeter=0;entryX=0;entryY=0.5;entryDx=0;entryDy=0;entryPerimeter=0;endArrow=none;endFill=0;" parent="1" source="10" target="23" edge="1">
          <mxGeometry relative="1" as="geometry" />
        </mxCell>
        <mxCell id="0RrkFoQe_uaNpjge-cmk-152" style="edgeStyle=orthogonalEdgeStyle;rounded=0;orthogonalLoop=1;jettySize=auto;html=1;exitX=1;exitY=0.5;exitDx=0;exitDy=0;exitPerimeter=0;entryX=0.002;entryY=0.477;entryDx=0;entryDy=0;entryPerimeter=0;endArrow=none;endFill=0;fillColor=#f5f5f5;strokeColor=#666666;" parent="1" source="42" target="43" edge="1">
          <mxGeometry relative="1" as="geometry">
            <Array as="points">
              <mxPoint x="390" y="655" />
              <mxPoint x="390" y="627" />
            </Array>
          </mxGeometry>
        </mxCell>
        <mxCell id="0RrkFoQe_uaNpjge-cmk-154" style="edgeStyle=orthogonalEdgeStyle;rounded=0;orthogonalLoop=1;jettySize=auto;html=1;exitX=1;exitY=0.5;exitDx=0;exitDy=0;exitPerimeter=0;entryX=-0.001;entryY=0.239;entryDx=0;entryDy=0;entryPerimeter=0;endArrow=none;endFill=0;fillColor=#f5f5f5;strokeColor=#666666;" parent="1" source="42" target="44" edge="1">
          <mxGeometry relative="1" as="geometry">
            <Array as="points">
              <mxPoint x="390" y="655" />
              <mxPoint x="390" y="645" />
            </Array>
          </mxGeometry>
        </mxCell>
        <mxCell id="0RrkFoQe_uaNpjge-cmk-155" style="edgeStyle=orthogonalEdgeStyle;rounded=0;orthogonalLoop=1;jettySize=auto;html=1;exitX=1;exitY=0.5;exitDx=0;exitDy=0;exitPerimeter=0;entryX=-0.006;entryY=0.484;entryDx=0;entryDy=0;entryPerimeter=0;endArrow=none;endFill=0;fillColor=#f5f5f5;strokeColor=#666666;" parent="1" source="42" target="45" edge="1">
          <mxGeometry relative="1" as="geometry">
            <Array as="points">
              <mxPoint x="390" y="655" />
              <mxPoint x="390" y="676" />
            </Array>
          </mxGeometry>
        </mxCell>
        <mxCell id="0RrkFoQe_uaNpjge-cmk-156" style="edgeStyle=orthogonalEdgeStyle;rounded=0;orthogonalLoop=1;jettySize=auto;html=1;exitX=1;exitY=0.5;exitDx=0;exitDy=0;exitPerimeter=0;entryX=-0.01;entryY=0.449;entryDx=0;entryDy=0;entryPerimeter=0;endArrow=none;endFill=0;fillColor=#f5f5f5;strokeColor=#666666;" parent="1" source="42" target="46" edge="1">
          <mxGeometry relative="1" as="geometry">
            <Array as="points">
              <mxPoint x="390" y="655" />
              <mxPoint x="390" y="700" />
            </Array>
          </mxGeometry>
        </mxCell>
      </root>
    </mxGraphModel>
  </diagram>
</mxfile>
